<svg id="svg" version="1.1" width="500" height="500" xmlns="http://www.w3.org/2000/svg" xmlns:xlink="http://www.w3.org/1999/xlink" style="display: block;"><g id="svgg"><path id="path0" d="M197.922 86.400 C 197.922 93.220,198.045 96.010,198.195 92.600 C 198.345 89.190,198.345 83.610,198.195 80.200 C 198.045 76.790,197.922 79.580,197.922 86.400 M200.000 86.403 L 200.000 98.406 205.800 104.297 C 208.990 107.536,216.910 115.572,223.400 122.153 C 236.637 135.577,236.428 135.126,231.882 140.487 L 228.564 144.400 232.246 140.800 C 238.020 135.154,239.275 137.062,210.314 107.483 L 200.800 97.767 200.800 86.497 L 200.800 75.227 203.706 76.860 C 205.304 77.757,213.788 85.581,222.558 94.246 C 231.328 102.911,238.891 110.137,239.365 110.304 C 239.839 110.472,232.460 102.963,222.968 93.618 C 207.394 78.285,202.894 74.400,200.709 74.400 C 200.319 74.400,200.000 79.801,200.000 86.403 M191.212 77.563 C 190.119 78.403,189.399 79.248,189.612 79.441 C 189.825 79.634,190.892 78.939,191.983 77.896 C 194.363 75.621,193.964 75.448,191.212 77.563 M192.600 103.170 C 190.563 105.154,190.880 105.960,192.942 104.040 C 193.900 103.147,194.530 102.280,194.342 102.112 C 194.154 101.944,193.370 102.420,192.600 103.170 M188.600 107.170 C 186.563 109.154,186.880 109.960,188.942 108.040 C 189.900 107.147,190.530 106.280,190.342 106.112 C 190.154 105.944,189.370 106.420,188.600 107.170 M184.600 111.170 C 182.563 113.154,182.880 113.960,184.942 112.040 C 185.900 111.147,186.530 110.280,186.342 110.112 C 186.154 109.944,185.370 110.420,184.600 111.170 M180.600 115.170 C 178.563 117.154,178.880 117.960,180.942 116.040 C 181.900 115.147,182.530 114.280,182.342 114.112 C 182.154 113.944,181.370 114.420,180.600 115.170 M176.600 119.170 C 174.563 121.154,174.880 121.960,176.942 120.040 C 177.900 119.147,178.530 118.280,178.342 118.112 C 178.154 117.944,177.370 118.420,176.600 119.170 M183.916 131.655 C 176.649 138.885,170.901 144.800,171.143 144.800 C 171.385 144.800,177.436 138.954,184.591 131.809 L 197.600 118.818 197.600 131.954 L 197.600 145.091 191.200 151.648 C 183.452 159.586,183.454 158.316,191.178 166.134 L 197.556 172.589 197.801 184.495 L 198.046 196.400 198.223 184.381 L 198.400 172.362 192.000 166.000 C 188.480 162.501,185.600 159.315,185.600 158.921 C 185.600 158.527,188.480 155.254,192.000 151.648 L 198.400 145.091 198.400 132.193 C 198.400 125.099,198.114 119.118,197.765 118.902 C 197.415 118.686,191.183 124.424,183.916 131.655 M200.000 132.145 L 200.000 145.091 206.400 151.648 C 209.920 155.254,212.800 158.527,212.800 158.921 C 212.800 159.315,209.920 162.501,206.400 166.000 L 200.000 172.362 200.000 184.181 L 200.000 196.000 202.103 196.000 C 205.760 196.000,260.002 141.336,258.167 139.500 C 257.973 139.307,257.374 140.214,256.835 141.517 C 255.967 143.610,243.082 156.627,212.600 186.200 C 200.525 197.916,200.796 197.962,200.816 184.200 L 200.832 173.200 207.606 166.033 L 214.380 158.866 212.190 156.498 C 210.985 155.196,207.930 152.037,205.400 149.480 L 200.800 144.830 200.800 132.311 L 200.800 119.792 212.789 131.642 C 224.329 143.048,226.219 144.761,227.292 144.788 C 227.774 144.800,219.123 136.222,207.225 124.891 C 199.548 117.580,200.000 117.126,200.000 132.145 M172.600 123.170 C 170.563 125.154,170.880 125.960,172.942 124.040 C 173.900 123.147,174.530 122.280,174.342 122.112 C 174.154 121.944,173.370 122.420,172.600 123.170 M168.600 127.170 C 166.563 129.154,166.880 129.960,168.942 128.040 C 169.900 127.147,170.530 126.280,170.342 126.112 C 170.154 125.944,169.370 126.420,168.600 127.170 M140.970 128.826 C 140.436 129.680,140.002 130.833,140.005 131.389 C 140.008 131.945,140.554 131.356,141.219 130.081 C 142.606 127.423,142.422 126.500,140.970 128.826 M256.000 127.356 C 256.000 127.609,256.538 128.848,257.195 130.109 C 257.852 131.369,258.381 131.860,258.370 131.200 C 258.358 130.540,257.821 129.301,257.175 128.447 C 256.529 127.593,256.000 127.102,256.000 127.356 M162.400 136.685 C 162.400 137.419,168.862 144.204,169.221 143.846 C 169.363 143.703,167.887 141.901,165.940 139.840 C 163.993 137.779,162.400 136.360,162.400 136.685 M166.400 168.264 C 179.820 181.816,191.880 193.664,193.200 194.593 C 194.520 195.522,195.417 196.128,195.193 195.941 C 194.969 195.753,182.909 183.905,168.393 169.611 L 142.000 143.623 166.400 168.264 M188.200 227.751 C 188.970 227.953,190.230 227.953,191.000 227.751 C 191.770 227.550,191.140 227.386,189.600 227.386 C 188.060 227.386,187.430 227.550,188.200 227.751 M312.200 227.751 C 312.970 227.953,314.230 227.953,315.000 227.751 C 315.770 227.550,315.140 227.386,313.600 227.386 C 312.060 227.386,311.430 227.550,312.200 227.751 M36.898 228.590 L 51.796 228.835 52.268 231.742 C 52.952 235.956,52.846 236.000,41.953 236.000 C 33.472 236.000,32.000 236.184,32.000 237.247 C 32.000 238.057,32.351 238.267,33.000 237.847 C 33.550 237.491,38.320 237.020,43.600 236.800 L 53.200 236.400 53.200 232.400 L 53.200 228.400 37.600 228.372 L 22.000 228.345 36.898 228.590 M59.768 228.498 C 59.456 228.811,59.268 235.937,59.351 244.333 L 59.502 259.600 60.031 244.400 C 60.651 226.535,60.017 228.800,64.400 228.800 C 67.787 228.800,68.002 228.930,68.030 231.000 C 68.318 251.799,70.417 264.000,73.706 264.000 C 74.132 264.000,73.480 262.687,72.257 261.083 C 70.050 258.191,70.028 258.041,69.616 243.283 L 69.200 228.400 64.768 228.165 C 62.331 228.036,60.081 228.186,59.768 228.498 M88.368 228.995 C 88.141 229.586,88.066 235.454,88.201 242.035 L 88.446 254.000 88.623 241.400 L 88.800 228.800 93.231 228.800 L 97.662 228.800 97.431 245.400 C 97.304 254.530,96.907 262.720,96.549 263.600 C 96.191 264.480,96.469 264.218,97.166 263.017 C 98.230 261.183,98.399 258.240,98.217 244.617 L 98.000 228.400 93.390 228.160 C 90.092 227.988,88.663 228.226,88.368 228.995 M105.181 228.831 C 104.873 229.330,104.509 239.697,104.372 251.869 L 104.122 274.000 104.843 255.600 C 105.239 245.480,105.777 235.310,106.039 233.000 L 106.515 228.800 109.938 228.800 L 113.360 228.800 113.880 236.123 C 114.166 240.150,114.400 247.818,114.400 253.163 C 114.400 265.220,114.022 264.800,124.893 264.800 C 129.950 264.800,133.633 265.136,133.873 265.620 C 134.097 266.071,134.188 265.981,134.076 265.420 C 133.930 264.694,131.241 264.285,124.736 264.000 L 115.600 263.600 115.200 246.000 L 114.800 228.400 110.271 228.162 C 107.513 228.017,105.522 228.279,105.181 228.831 M140.157 233.762 L 140.313 239.600 140.593 234.200 L 140.873 228.800 145.221 228.800 L 149.569 228.800 149.785 246.600 L 150.000 264.400 158.586 264.627 C 168.161 264.880,169.148 265.469,168.648 270.637 L 168.400 273.200 154.220 273.418 L 140.040 273.637 139.788 260.618 L 139.537 247.600 139.568 260.800 L 139.600 274.000 152.800 274.228 C 169.479 274.517,169.600 274.489,169.600 270.332 C 169.600 264.303,169.102 264.000,159.187 264.000 L 150.431 264.000 150.215 246.200 L 150.000 228.400 145.000 228.162 L 140.000 227.924 140.157 233.762 M177.856 231.000 C 176.123 232.650,175.627 233.213,176.753 232.251 C 177.879 231.288,179.880 229.941,181.200 229.256 C 182.549 228.555,183.032 228.008,182.303 228.005 C 181.589 228.002,179.588 229.350,177.856 231.000 M197.667 228.303 C 198.623 229.173,204.739 231.748,204.349 231.117 C 204.097 230.709,202.611 229.841,201.048 229.188 C 198.270 228.027,196.997 227.694,197.667 228.303 M245.477 232.000 L 245.754 236.000 240.163 236.000 C 235.802 236.000,234.464 236.279,234.086 237.265 C 233.318 239.266,233.515 239.618,234.600 238.181 C 235.312 237.238,237.095 236.791,240.800 236.628 L 246.000 236.400 246.242 232.200 C 246.375 229.890,246.195 228.000,245.842 228.000 C 245.489 227.999,245.325 229.799,245.477 232.000 M321.600 228.593 C 322.260 228.850,323.997 229.730,325.459 230.550 C 326.922 231.369,327.905 231.693,327.643 231.270 C 327.042 230.297,322.442 227.979,321.277 228.063 C 320.795 228.098,320.940 228.336,321.600 228.593 M345.595 236.637 L 345.990 245.200 346.226 237.271 C 346.355 232.909,346.177 229.056,345.831 228.707 C 345.484 228.358,345.378 231.927,345.595 236.637 M373.394 228.528 C 374.129 228.825,374.169 229.380,373.549 230.665 C 372.739 232.343,372.752 232.349,373.956 230.847 C 375.576 228.824,375.529 227.985,373.800 228.063 C 372.974 228.100,372.808 228.291,373.394 228.528 M272.000 230.556 C 272.000 230.809,272.538 232.048,273.195 233.309 C 273.852 234.569,274.381 235.060,274.370 234.400 C 274.358 233.740,273.821 232.501,273.175 231.647 C 272.529 230.793,272.000 230.302,272.000 230.556 M353.688 238.341 C 349.682 242.913,348.859 244.065,351.646 241.200 C 358.920 233.723,361.119 231.246,360.745 230.953 C 360.555 230.803,357.380 234.128,353.688 238.341 M205.693 233.240 C 205.642 234.142,205.241 235.313,204.803 235.843 C 204.364 236.372,204.579 236.307,205.280 235.697 C 205.980 235.088,206.381 233.917,206.170 233.095 C 205.823 231.747,205.776 231.762,205.693 233.240 M294.862 235.344 C 293.288 237.183,292.000 239.063,292.000 239.522 C 292.000 239.981,292.595 239.466,293.323 238.378 C 294.050 237.290,295.558 235.410,296.672 234.200 C 297.787 232.990,298.480 232.000,298.212 232.000 C 297.944 232.000,296.437 233.505,294.862 235.344 M329.964 233.445 C 331.337 235.063,331.395 235.505,330.436 237.045 C 329.438 238.647,329.459 238.704,330.671 237.702 C 332.473 236.213,332.342 234.937,330.200 233.124 L 328.400 231.600 329.964 233.445 M173.856 240.800 C 173.856 243.660,174.001 244.830,174.179 243.400 C 174.356 241.970,174.356 239.630,174.179 238.200 C 174.001 236.770,173.856 237.940,173.856 240.800 M215.730 236.593 C 223.442 236.962,223.131 236.157,223.400 256.463 L 223.633 274.000 223.816 256.257 C 224.035 235.113,224.359 235.920,215.743 236.159 L 210.000 236.318 215.730 236.593 M256.970 237.626 C 256.436 238.480,256.002 239.633,256.005 240.189 C 256.008 240.745,256.554 240.156,257.219 238.881 C 258.606 236.223,258.422 235.300,256.970 237.626 M311.478 236.612 C 310.971 236.936,312.387 237.228,314.624 237.262 C 317.237 237.301,318.139 237.107,317.146 236.718 C 315.120 235.924,312.630 235.878,311.478 236.612 M320.400 238.356 C 321.280 238.716,322.686 239.774,323.524 240.706 C 324.362 241.638,325.365 242.400,325.752 242.400 C 326.139 242.400,325.226 241.320,323.722 240.000 C 322.219 238.680,320.496 237.623,319.894 237.651 C 319.292 237.679,319.520 237.996,320.400 238.356 M303.847 240.600 C 301.518 243.097,299.678 246.345,300.262 246.929 C 300.478 247.144,300.899 246.550,301.198 245.608 C 301.497 244.666,302.827 242.659,304.153 241.147 C 307.024 237.878,306.785 237.451,303.847 240.600 M360.812 244.388 C 359.325 245.921,358.265 247.299,358.455 247.450 C 358.645 247.600,360.012 246.345,361.493 244.661 C 364.858 240.835,364.424 240.661,360.812 244.388 M277.605 243.247 C 277.602 243.933,278.129 245.193,278.775 246.047 C 280.303 248.067,280.318 247.192,278.805 244.291 C 278.148 243.031,277.608 242.561,277.605 243.247 M265.154 244.335 C 264.301 244.959,263.782 245.648,264.001 245.866 C 264.221 246.084,265.250 245.573,266.289 244.731 C 268.461 242.970,267.486 242.629,265.154 244.335 M188.800 245.200 C 189.900 245.829,191.520 246.340,192.400 246.337 C 193.280 246.333,192.560 245.811,190.800 245.177 C 186.791 243.733,186.244 243.739,188.800 245.200 M21.972 259.399 L 22.000 274.000 26.800 274.057 L 31.600 274.114 27.018 273.819 L 22.436 273.525 22.190 259.162 L 21.944 244.799 21.972 259.399 M253.340 246.021 C 253.042 246.889,252.582 248.140,252.317 248.800 C 252.051 249.460,252.438 249.181,253.177 248.179 C 253.915 247.178,254.376 245.927,254.200 245.400 C 254.021 244.862,253.643 245.134,253.340 246.021 M289.874 250.800 C 289.877 254.320,290.018 255.660,290.187 253.779 C 290.356 251.897,290.353 249.017,290.182 247.379 C 290.010 245.740,289.871 247.280,289.874 250.800 M32.263 246.800 C 32.410 247.243,36.789 247.779,42.064 248.000 L 51.600 248.400 51.600 252.126 C 51.600 254.175,51.870 255.683,52.200 255.478 C 53.177 254.871,52.883 249.216,51.800 247.788 C 50.636 246.253,31.763 245.299,32.263 246.800 M268.000 245.756 C 268.000 246.009,268.538 247.248,269.195 248.509 C 269.852 249.769,270.381 250.260,270.370 249.600 C 270.358 248.940,269.821 247.701,269.175 246.847 C 268.529 245.993,268.000 245.502,268.000 245.756 M201.776 250.003 C 203.397 251.105,205.090 252.635,205.538 253.403 C 205.985 254.171,206.362 254.376,206.376 253.858 C 206.403 252.800,200.877 248.000,199.632 248.000 C 199.190 248.000,200.155 248.901,201.776 250.003 M261.340 252.421 C 261.042 253.289,260.582 254.540,260.317 255.200 C 260.051 255.860,260.438 255.581,261.177 254.579 C 261.915 253.578,262.376 252.327,262.200 251.800 C 262.021 251.262,261.643 251.534,261.340 252.421 M361.600 254.400 C 362.540 255.720,363.489 256.800,363.709 256.800 C 363.929 256.800,363.340 255.720,362.400 254.400 C 361.460 253.080,360.511 252.000,360.291 252.000 C 360.071 252.000,360.660 253.080,361.600 254.400 M186.800 254.823 C 190.809 256.267,191.356 256.261,188.800 254.800 C 187.700 254.171,186.080 253.660,185.200 253.663 C 184.320 253.667,185.040 254.189,186.800 254.823 M300.034 254.400 C 300.003 255.739,302.890 260.800,303.686 260.800 C 303.967 260.800,303.802 260.325,303.320 259.745 C 302.839 259.165,301.909 257.455,301.254 255.945 C 300.599 254.435,300.050 253.740,300.034 254.400 M248.930 256.434 C 247.590 259.376,247.845 260.004,249.295 257.329 C 249.971 256.080,250.376 254.909,250.193 254.726 C 250.010 254.543,249.441 255.312,248.930 256.434 M206.989 258.679 C 207.451 262.784,206.179 266.804,203.722 269.000 C 202.860 269.770,202.514 270.400,202.954 270.400 C 206.221 270.400,209.487 259.586,207.274 256.092 C 206.843 255.411,206.733 256.408,206.989 258.679 M32.299 264.400 C 32.301 269.240,32.433 271.117,32.592 268.571 C 32.751 266.025,32.750 262.065,32.589 259.771 C 32.428 257.477,32.297 259.560,32.299 264.400 M194.804 257.932 C 196.311 259.438,196.762 260.529,196.411 261.813 C 195.967 263.441,196.006 263.467,196.851 262.111 C 197.830 260.540,195.904 256.901,193.706 256.169 C 193.158 255.986,193.652 256.779,194.804 257.932 M349.924 256.924 C 349.589 257.466,349.702 257.631,350.199 257.324 C 350.665 257.036,352.191 258.151,353.591 259.800 L 356.135 262.800 353.868 259.417 C 351.466 255.834,350.841 255.439,349.924 256.924 M258.933 258.200 C 257.902 259.913,256.025 265.087,256.684 264.400 C 257.553 263.495,260.086 257.600,259.606 257.600 C 259.435 257.600,259.132 257.870,258.933 258.200 M365.600 260.000 C 366.540 261.320,367.489 262.400,367.709 262.400 C 367.929 262.400,367.340 261.320,366.400 260.000 C 365.460 258.680,364.511 257.600,364.291 257.600 C 364.071 257.600,364.660 258.680,365.600 260.000 M174.458 262.182 C 173.106 263.823,172.042 265.893,172.093 266.782 C 172.185 268.385,172.189 268.385,172.563 266.800 C 172.770 265.920,174.005 263.850,175.308 262.200 C 178.381 258.306,177.666 258.291,174.458 262.182 M322.436 261.300 C 319.017 263.726,318.740 264.000,319.697 264.000 C 320.117 264.000,321.707 262.935,323.230 261.633 C 326.575 258.773,326.210 258.620,322.436 261.300 M181.200 261.930 C 182.520 263.064,183.930 263.994,184.333 263.996 C 185.201 264.001,185.192 263.993,181.600 261.675 L 178.800 259.868 181.200 261.930 M265.242 261.554 C 264.469 262.408,264.024 263.578,264.255 264.154 C 264.527 264.834,264.696 264.710,264.737 263.800 C 264.794 262.542,265.694 262.036,267.400 262.305 C 267.730 262.357,268.000 261.860,268.000 261.200 C 268.000 259.557,266.924 259.695,265.242 261.554 M328.723 262.720 L 331.359 265.441 329.613 267.187 C 328.653 268.147,328.036 269.102,328.242 269.309 C 328.449 269.515,329.375 268.721,330.301 267.544 L 331.985 265.403 329.793 262.759 C 328.587 261.305,327.259 260.090,326.843 260.058 C 326.427 260.026,327.273 261.224,328.723 262.720 M84.404 262.395 C 83.606 263.278,83.324 264.000,83.778 264.000 C 84.785 264.000,86.780 261.713,86.242 261.176 C 86.030 260.964,85.203 261.512,84.404 262.395 M285.660 261.600 C 285.657 262.753,287.914 267.333,287.972 266.292 C 287.987 266.012,287.474 264.572,286.831 263.092 C 286.189 261.611,285.661 260.940,285.660 261.600 M345.880 267.200 C 345.880 270.940,346.017 272.470,346.186 270.600 C 346.354 268.730,346.354 265.670,346.186 263.800 C 346.017 261.930,345.880 263.460,345.880 267.200 M292.000 262.266 C 292.000 263.580,300.363 272.000,301.668 272.000 C 302.203 272.000,301.169 270.934,299.370 269.631 C 297.572 268.328,295.178 265.905,294.050 264.246 C 292.923 262.586,292.000 261.696,292.000 262.266 M268.000 263.356 C 268.000 263.609,268.538 264.848,269.195 266.109 C 269.852 267.369,270.381 267.860,270.370 267.200 C 270.358 266.540,269.821 265.301,269.175 264.447 C 268.529 263.593,268.000 263.102,268.000 263.356 M369.600 265.600 C 370.540 266.920,371.489 268.000,371.709 268.000 C 371.929 268.000,371.340 266.920,370.400 265.600 C 369.460 264.280,368.511 263.200,368.291 263.200 C 368.071 263.200,368.660 264.280,369.600 265.600 M76.276 264.988 C 76.784 265.311,77.920 265.575,78.800 265.575 C 79.680 265.575,80.816 265.311,81.324 264.988 C 81.832 264.664,80.696 264.400,78.800 264.400 C 76.904 264.400,75.768 264.664,76.276 264.988 M186.800 264.800 C 187.680 265.178,188.940 265.488,189.600 265.488 C 190.356 265.488,190.209 265.233,189.200 264.800 C 188.320 264.422,187.060 264.112,186.400 264.112 C 185.644 264.112,185.791 264.367,186.800 264.800 M244.970 265.626 C 244.436 266.480,244.002 267.633,244.005 268.189 C 244.008 268.745,244.554 268.156,245.219 266.881 C 246.606 264.223,246.422 263.300,244.970 265.626 M276.028 264.447 C 276.079 265.789,278.343 269.259,278.346 268.000 C 278.348 267.340,277.821 266.101,277.175 265.247 C 276.529 264.393,276.013 264.033,276.028 264.447 M311.000 264.579 C 312.430 264.756,314.770 264.756,316.200 264.579 C 317.630 264.401,316.460 264.256,313.600 264.256 C 310.740 264.256,309.570 264.401,311.000 264.579 M61.600 265.166 C 61.600 265.486,62.320 266.663,63.200 267.782 C 64.080 268.900,64.800 269.554,64.800 269.234 C 64.800 268.914,64.080 267.737,63.200 266.618 C 62.320 265.500,61.600 264.846,61.600 265.166 M92.362 268.937 C 89.944 271.490,89.752 271.859,91.545 270.508 C 93.643 268.928,96.533 265.600,95.808 265.600 C 95.652 265.600,94.102 267.102,92.362 268.937 M360.000 268.800 C 360.940 270.120,361.889 271.200,362.109 271.200 C 362.329 271.200,361.740 270.120,360.800 268.800 C 359.860 267.480,358.911 266.400,358.691 266.400 C 358.471 266.400,359.060 267.480,360.000 268.800 M261.257 270.857 C 260.963 272.030,260.876 273.143,261.065 273.332 C 261.254 273.520,261.649 272.715,261.943 271.543 C 262.237 270.370,262.324 269.257,262.135 269.068 C 261.946 268.880,261.551 269.685,261.257 270.857 M373.437 271.195 C 374.187 272.512,375.095 273.592,375.454 273.595 C 375.814 273.598,375.340 272.520,374.400 271.200 C 372.204 268.116,371.684 268.113,373.437 271.195 M70.400 273.116 C 71.759 273.950,74.451 274.343,78.800 274.343 C 83.149 274.343,85.841 273.950,87.200 273.116 C 88.300 272.442,88.480 272.184,87.600 272.544 C 86.720 272.903,82.760 273.198,78.800 273.198 C 74.840 273.198,70.880 272.903,70.000 272.544 C 69.120 272.184,69.300 272.442,70.400 273.116 M280.726 273.848 C 281.084 274.205,283.137 274.379,285.288 274.236 L 289.200 273.974 284.638 273.587 C 282.128 273.374,280.368 273.492,280.726 273.848 M336.726 273.848 C 337.084 274.205,339.137 274.379,341.288 274.236 L 345.200 273.974 340.638 273.587 C 338.128 273.374,336.368 273.492,336.726 273.848 M112.160 274.195 C 115.987 274.341,122.467 274.342,126.560 274.197 C 130.652 274.051,127.520 273.931,119.600 273.931 C 111.680 273.930,108.332 274.049,112.160 274.195 M187.782 274.177 C 189.202 274.354,191.722 274.357,193.382 274.184 C 195.042 274.011,193.880 273.866,190.800 273.863 C 187.720 273.859,186.362 274.001,187.782 274.177 M226.200 274.165 C 227.190 274.355,228.810 274.355,229.800 274.165 C 230.790 273.974,229.980 273.818,228.000 273.818 C 226.020 273.818,225.210 273.974,226.200 274.165 M245.000 274.173 C 246.210 274.356,248.190 274.356,249.400 274.173 C 250.610 273.990,249.620 273.840,247.200 273.840 C 244.780 273.840,243.790 273.990,245.000 274.173 M264.614 274.180 C 266.052 274.358,268.212 274.354,269.414 274.172 C 270.616 273.989,269.440 273.843,266.800 273.848 C 264.160 273.852,263.176 274.002,264.614 274.180 M310.600 274.183 C 312.250 274.355,314.950 274.355,316.600 274.183 C 318.250 274.010,316.900 273.869,313.600 273.869 C 310.300 273.869,308.950 274.010,310.600 274.183 M367.014 274.180 C 368.452 274.358,370.612 274.354,371.814 274.172 C 373.016 273.989,371.840 273.843,369.200 273.848 C 366.560 273.852,365.576 274.002,367.014 274.180 M251.658 285.257 C 250.871 285.832,250.636 286.451,251.097 286.736 C 251.533 287.006,252.116 286.860,252.392 286.413 C 252.668 285.966,253.953 285.600,255.247 285.600 C 256.541 285.600,257.600 285.300,257.600 284.933 C 257.600 283.905,253.178 284.145,251.658 285.257 M248.600 289.225 C 246.701 291.770,246.833 292.367,248.850 290.350 C 249.757 289.443,250.388 288.396,250.250 288.024 C 250.113 287.652,249.370 288.192,248.600 289.225 M63.200 288.154 C 63.200 288.374,63.920 289.385,64.800 290.400 C 65.680 291.415,66.400 291.886,66.400 291.446 C 66.400 291.007,65.680 289.996,64.800 289.200 C 63.920 288.404,63.200 287.933,63.200 288.154 M112.000 294.772 C 112.000 300.481,112.227 301.665,113.444 302.317 C 115.680 303.513,121.336 302.434,122.967 300.499 C 124.384 298.819,124.382 298.816,122.737 300.200 C 121.616 301.144,119.707 301.600,116.878 301.600 L 112.682 301.600 112.941 294.798 C 113.084 291.057,112.930 287.997,112.600 287.998 C 112.270 287.999,112.000 291.047,112.000 294.772 M120.397 288.796 C 120.668 289.233,121.679 290.006,122.645 290.512 C 124.388 291.426,124.389 291.421,122.876 289.716 C 121.349 287.997,119.473 287.300,120.397 288.796 M141.936 289.079 C 141.708 289.673,141.633 292.643,141.770 295.679 L 142.019 301.200 142.410 294.598 C 142.799 288.007,142.717 287.044,141.936 289.079 M149.600 288.667 C 149.600 289.180,148.790 289.642,147.800 289.693 C 146.318 289.769,146.263 289.853,147.485 290.168 C 149.081 290.579,151.049 289.182,150.147 288.280 C 149.846 287.979,149.600 288.153,149.600 288.667 M168.000 294.753 C 168.000 298.844,168.351 301.722,168.889 302.055 C 169.995 302.739,171.171 300.983,171.188 298.625 C 171.204 296.337,173.368 297.024,173.844 299.468 C 174.118 300.871,174.203 300.782,174.291 299.000 C 174.393 296.932,177.600 295.502,177.600 297.525 C 177.600 297.924,178.320 298.062,179.200 297.832 C 180.486 297.495,180.800 297.807,180.800 299.421 C 180.800 301.332,182.504 302.829,183.522 301.812 C 184.222 301.111,184.107 288.000,183.400 287.998 C 183.070 287.997,182.836 291.147,182.881 294.998 C 182.928 299.070,182.828 300.075,182.641 297.400 C 182.325 292.866,181.048 291.277,180.232 294.400 C 180.002 295.280,179.495 296.000,179.107 296.000 C 178.188 296.000,178.185 292.227,179.103 291.660 C 179.490 291.421,180.010 290.447,180.259 289.497 C 181.010 286.623,179.204 289.040,178.015 292.500 C 177.428 294.205,176.522 295.600,176.000 295.600 C 175.478 295.600,174.572 294.205,173.985 292.500 C 173.399 290.795,172.492 288.995,171.968 288.500 C 171.445 288.005,171.620 288.794,172.357 290.253 C 173.093 291.712,173.564 293.872,173.402 295.053 L 173.109 297.200 172.132 294.889 C 170.872 291.907,170.164 292.702,169.498 297.849 C 169.068 301.167,168.985 300.596,169.080 294.998 C 169.146 291.147,168.930 287.997,168.600 287.998 C 168.270 287.999,168.000 291.039,168.000 294.753 M200.025 288.944 C 200.039 289.525,200.579 290.699,201.225 291.553 C 202.580 293.344,202.788 292.620,201.572 290.347 C 200.638 288.602,201.537 288.288,203.140 289.800 C 203.995 290.607,204.130 290.568,203.837 289.600 C 203.377 288.076,199.990 287.493,200.025 288.944 M275.671 290.461 C 274.292 292.100,273.640 293.771,273.720 295.461 L 273.840 298.000 274.187 295.600 C 274.377 294.280,275.422 292.030,276.507 290.600 C 279.012 287.302,278.413 287.202,275.671 290.461 M286.000 289.526 L 287.600 291.451 285.799 291.000 C 284.808 290.752,284.200 290.876,284.446 291.275 C 285.012 292.190,288.000 292.232,288.000 291.324 C 288.000 290.952,287.190 289.962,286.200 289.124 L 284.400 287.600 286.000 289.526 M307.254 289.943 C 306.250 291.011,305.619 292.361,305.851 292.943 C 306.141 293.667,306.294 293.577,306.337 292.658 C 306.372 291.920,307.349 290.570,308.508 289.658 C 309.667 288.746,310.270 288.000,309.847 288.000 C 309.425 288.000,308.258 288.874,307.254 289.943 M317.597 289.997 C 318.629 291.095,319.649 291.817,319.865 291.602 C 320.396 291.071,317.558 288.000,316.537 288.000 C 316.088 288.000,316.565 288.899,317.597 289.997 M347.607 290.544 C 348.923 292.088,350.156 293.221,350.346 293.062 C 350.898 292.603,347.620 288.540,346.358 288.119 C 345.728 287.909,346.290 289.001,347.607 290.544 M337.749 294.902 C 337.572 302.642,338.179 303.496,343.311 302.720 C 346.652 302.214,350.400 299.791,350.400 298.136 C 350.400 297.704,349.590 298.280,348.600 299.416 C 347.193 301.030,345.927 301.532,342.800 301.716 L 338.800 301.952 338.349 295.176 L 337.898 288.400 337.749 294.902 M52.970 291.226 C 52.436 292.080,52.014 293.233,52.032 293.789 C 52.050 294.345,52.618 293.778,53.295 292.529 C 54.700 289.935,54.437 288.877,52.970 291.226 M59.600 290.170 C 60.480 290.382,61.542 290.880,61.960 291.278 C 62.378 291.675,63.278 291.987,63.960 291.972 C 64.747 291.954,64.469 291.526,63.200 290.800 C 62.100 290.171,60.480 289.686,59.600 289.721 L 58.000 289.786 59.600 290.170 M26.598 292.285 C 26.049 293.490,25.623 294.908,25.651 295.438 C 25.679 295.967,26.087 295.500,26.559 294.400 L 27.416 292.400 28.028 294.400 C 28.456 295.797,28.665 295.963,28.720 294.953 C 28.764 294.157,29.166 293.732,29.613 294.008 C 30.060 294.284,30.219 294.846,29.966 295.255 C 29.713 295.665,29.898 296.000,30.378 296.000 C 30.858 296.000,31.457 295.460,31.711 294.800 C 32.341 293.158,33.586 293.286,33.663 295.000 C 33.698 295.770,33.888 296.010,34.085 295.534 C 34.283 295.058,33.896 293.618,33.227 292.334 C 32.074 290.123,32.010 290.100,32.005 291.886 C 32.001 293.275,31.667 293.643,30.735 293.286 C 30.039 293.019,29.165 292.800,28.793 292.800 C 28.421 292.800,28.000 292.191,27.857 291.447 C 27.661 290.430,27.348 290.639,26.598 292.285 M55.724 291.863 C 54.060 293.702,54.064 296.717,55.733 298.800 L 57.015 300.400 56.417 298.800 C 55.083 295.233,55.070 294.318,56.326 292.401 C 57.868 290.047,57.592 289.799,55.724 291.863 M114.200 290.858 C 111.635 293.459,114.315 300.927,117.747 300.744 C 118.326 300.713,118.080 300.409,117.200 300.068 C 115.933 299.577,115.517 298.490,115.200 294.849 C 114.980 292.320,114.530 290.524,114.200 290.858 M120.200 291.663 C 121.830 293.599,122.041 297.585,120.600 299.201 C 119.749 300.155,119.809 300.165,121.000 299.263 C 123.041 297.719,122.817 293.401,120.600 291.524 C 118.802 290.002,118.801 290.002,120.200 291.663 M206.385 291.619 C 205.553 292.621,205.208 292.665,204.683 291.838 C 204.193 291.066,204.021 291.159,204.012 292.200 C 204.006 292.970,204.270 293.589,204.600 293.575 C 205.628 293.531,208.306 291.239,207.856 290.789 C 207.620 290.554,206.958 290.927,206.385 291.619 M236.314 291.495 C 234.907 292.279,234.808 292.602,235.714 293.449 C 236.595 294.272,236.800 294.247,236.800 293.317 C 236.800 291.657,238.812 291.140,240.491 292.367 C 241.730 293.273,241.798 293.729,240.968 295.550 C 239.671 298.396,239.786 299.151,241.225 297.247 C 241.871 296.393,242.400 295.043,242.400 294.247 C 242.400 293.451,242.850 292.789,243.400 292.775 C 243.963 292.760,243.722 292.236,242.847 291.575 C 241.034 290.203,238.686 290.175,236.314 291.495 M309.000 291.647 C 308.450 292.244,308.000 293.188,308.000 293.744 C 308.000 294.301,308.577 293.933,309.282 292.926 C 310.725 290.866,310.531 289.985,309.000 291.647 M316.200 291.663 C 317.925 293.711,318.014 297.060,316.381 298.416 C 315.710 298.973,315.354 299.620,315.589 299.856 C 316.359 300.626,318.349 297.247,318.375 295.124 C 318.389 293.932,317.633 292.399,316.600 291.524 C 314.802 290.002,314.801 290.002,316.200 291.663 M340.256 295.200 C 340.256 298.060,340.401 299.230,340.579 297.800 C 340.756 296.370,340.756 294.030,340.579 292.600 C 340.401 291.170,340.256 292.340,340.256 295.200 M346.163 292.326 C 346.953 293.385,347.719 293.928,347.864 293.533 C 348.010 293.138,347.585 292.271,346.921 291.607 C 345.045 289.731,344.565 290.186,346.163 292.326 M85.693 293.353 C 85.642 294.317,85.240 295.328,84.800 295.600 C 84.360 295.872,84.000 296.513,84.000 297.025 C 84.000 297.537,84.565 297.149,85.256 296.163 C 85.946 295.177,86.348 293.747,86.149 292.985 C 85.873 291.934,85.763 292.022,85.693 293.353 M124.218 295.200 C 124.218 297.180,124.374 297.990,124.565 297.000 C 124.755 296.010,124.755 294.390,124.565 293.400 C 124.374 292.410,124.218 293.220,124.218 295.200 M277.000 292.530 C 275.421 293.167,275.834 296.695,277.714 298.633 L 279.428 300.400 277.932 297.784 C 276.695 295.620,276.607 294.893,277.425 293.584 C 277.969 292.713,278.321 292.028,278.207 292.063 C 278.093 292.098,277.550 292.308,277.000 292.530 M92.054 293.600 C 92.052 294.260,92.579 295.499,93.225 296.353 C 94.720 298.329,94.703 297.029,93.200 294.400 C 92.537 293.240,92.055 292.904,92.054 293.600 M320.186 295.200 C 320.186 296.740,320.350 297.370,320.551 296.600 C 320.753 295.830,320.753 294.570,320.551 293.800 C 320.350 293.030,320.186 293.660,320.186 295.200 M147.200 294.154 C 148.300 294.378,149.497 294.975,149.861 295.481 C 150.303 296.095,150.415 296.002,150.199 295.200 C 150.017 294.523,148.857 293.945,147.538 293.873 C 145.525 293.764,145.478 293.803,147.200 294.154 M232.947 294.573 C 232.426 295.094,232.000 296.068,232.000 296.738 C 232.000 297.574,232.402 297.382,233.282 296.126 C 234.685 294.122,234.457 293.063,232.947 294.573 M372.800 294.154 C 373.900 294.378,375.097 294.975,375.461 295.481 C 375.903 296.095,376.015 296.002,375.799 295.200 C 375.617 294.523,374.457 293.945,373.138 293.873 C 371.125 293.764,371.078 293.803,372.800 294.154 M247.004 296.000 C 246.689 297.117,246.785 298.118,247.220 298.267 C 247.649 298.413,248.014 299.313,248.031 300.267 C 248.056 301.614,248.329 301.385,249.259 299.241 C 249.918 297.724,250.305 295.924,250.121 295.241 C 249.919 294.495,249.749 294.718,249.693 295.800 C 249.642 296.790,249.265 297.600,248.856 297.600 C 248.446 297.600,247.989 296.790,247.839 295.800 C 247.573 294.038,247.555 294.042,247.004 296.000 M52.005 296.677 C 51.998 298.164,55.109 302.400,56.207 302.400 C 56.702 302.400,56.513 301.950,55.787 301.400 C 55.062 300.850,53.916 299.320,53.239 298.000 C 52.563 296.680,52.008 296.084,52.005 296.677 M144.533 296.533 C 143.747 297.320,143.885 300.000,144.711 300.000 C 145.102 300.000,145.372 299.395,145.311 298.655 C 145.245 297.855,146.009 297.078,147.200 296.735 L 149.200 296.159 147.133 296.080 C 145.997 296.036,144.827 296.240,144.533 296.533 M206.933 296.533 C 206.640 296.827,206.400 297.885,206.400 298.886 C 206.400 301.471,204.978 302.025,204.557 299.604 C 204.230 297.725,204.212 297.739,204.303 299.790 C 204.453 303.199,206.674 302.606,207.260 299.000 C 207.779 295.811,207.764 295.702,206.933 296.533 M242.367 298.462 C 241.878 299.376,240.991 299.938,240.397 299.710 C 239.803 299.482,238.887 299.814,238.361 300.448 C 237.583 301.384,237.699 301.600,238.978 301.600 C 240.447 301.600,242.194 300.141,243.526 297.800 C 243.838 297.250,243.906 296.800,243.675 296.800 C 243.445 296.800,242.856 297.548,242.367 298.462 M27.800 298.151 C 27.030 298.353,26.400 298.843,26.400 299.242 C 26.400 299.640,27.304 299.554,28.408 299.051 C 30.139 298.262,30.706 298.402,32.516 300.068 C 34.455 301.851,34.549 301.868,33.731 300.294 C 33.243 299.356,32.265 298.366,31.557 298.094 C 30.195 297.571,30.009 297.574,27.800 298.151 M63.200 299.200 C 62.400 299.717,62.333 299.980,63.000 299.988 C 63.550 299.994,64.000 300.360,64.000 300.800 C 64.000 301.240,62.761 301.600,61.247 301.600 C 59.733 301.600,58.237 302.016,57.923 302.525 C 57.178 303.731,62.862 302.876,64.471 301.541 C 66.758 299.643,65.656 297.613,63.200 299.200 M284.932 299.101 C 284.121 299.616,284.264 299.883,285.532 300.214 C 286.639 300.503,287.200 300.272,287.200 299.525 C 287.200 298.249,286.487 298.116,284.932 299.101 M82.990 300.230 C 82.629 301.146,82.840 301.819,83.575 302.101 C 84.985 302.642,86.422 301.837,86.337 300.553 C 86.291 299.866,86.161 299.879,85.870 300.600 C 85.286 302.048,84.163 301.827,83.835 300.200 C 83.569 298.882,83.520 298.884,82.990 300.230 M94.646 300.287 C 95.082 301.422,94.912 301.502,93.582 300.790 C 92.684 300.310,92.000 300.265,92.000 300.686 C 92.000 301.424,93.860 302.400,95.265 302.400 C 96.324 302.400,96.171 300.200,95.064 299.516 C 94.432 299.125,94.296 299.376,94.646 300.287 M177.600 300.211 C 177.600 300.914,176.790 301.645,175.800 301.835 L 174.000 302.182 175.825 302.291 C 177.583 302.396,179.125 300.458,178.099 299.432 C 177.824 299.158,177.600 299.508,177.600 300.211 M232.063 299.772 C 231.972 301.177,234.955 302.644,235.642 301.532 C 235.938 301.053,235.765 300.245,235.257 299.737 C 234.559 299.039,234.170 299.078,233.664 299.897 C 233.101 300.808,232.924 300.807,232.560 299.891 C 232.272 299.167,232.105 299.127,232.063 299.772 M317.994 300.520 C 317.268 301.246,315.629 301.810,314.351 301.774 C 313.073 301.738,311.786 302.100,311.490 302.579 C 310.529 304.134,316.985 302.570,318.730 300.826 C 319.624 299.932,320.121 299.200,319.835 299.200 C 319.549 299.200,318.720 299.794,317.994 300.520 M370.846 300.075 C 371.093 300.474,372.263 300.841,373.447 300.892 C 375.079 300.962,374.826 301.134,372.400 301.606 C 370.640 301.948,368.874 302.031,368.476 301.790 C 368.078 301.550,368.010 301.768,368.324 302.276 C 369.118 303.561,372.980 303.432,374.847 302.057 C 376.127 301.115,376.189 300.846,375.200 300.528 C 372.315 299.600,370.432 299.404,370.846 300.075 M148.000 300.800 C 149.605 301.314,149.211 301.459,146.000 301.533 C 143.102 301.599,142.331 301.838,143.200 302.400 C 144.941 303.525,148.461 303.372,149.495 302.126 C 150.598 300.797,149.863 299.975,147.667 300.080 C 146.208 300.150,146.249 300.239,148.000 300.800 M245.709 301.640 C 245.649 302.762,245.174 304.106,244.653 304.627 C 244.133 305.147,243.956 305.823,244.262 306.128 C 244.567 306.434,245.533 305.915,246.408 304.975 C 248.069 303.193,248.537 301.974,247.257 302.765 C 246.849 303.017,246.358 302.408,246.166 301.412 C 245.842 299.726,245.810 299.741,245.709 301.640 M280.000 302.400 C 280.000 303.359,282.969 303.359,285.200 302.400 C 286.439 301.868,286.033 301.700,283.400 301.656 C 281.530 301.625,280.000 301.960,280.000 302.400 M240.533 306.133 C 240.240 306.427,240.006 307.057,240.012 307.533 C 240.019 308.010,240.373 307.860,240.800 307.200 C 241.364 306.328,241.579 306.286,241.588 307.047 C 241.594 307.623,241.966 307.868,242.413 307.592 C 242.860 307.316,243.019 306.754,242.766 306.345 C 242.226 305.471,241.285 305.382,240.533 306.133 " stroke="none" fill="#8b8b8b" fill-rule="evenodd"></path><path id="path1" d="M0.000 200.000 L 0.000 400.000 200.000 400.000 L 400.000 400.000 400.000 200.000 L 400.000 0.000 200.000 0.000 L 0.000 0.000 0.000 200.000 M205.513 75.506 C 206.657 76.438,218.958 88.540,232.849 102.400 C 268.804 138.276,268.830 132.886,232.533 169.050 C 203.316 198.162,205.221 196.618,198.433 196.673 L 193.266 196.714 167.765 171.357 C 129.277 133.086,129.264 138.300,167.938 99.714 L 194.000 73.712 198.716 73.762 C 202.279 73.800,203.941 74.227,205.513 75.506 M198.400 98.611 C 198.400 99.129,190.660 107.322,181.200 116.818 C 162.380 135.709,162.615 135.322,167.168 139.968 C 171.204 144.085,169.369 145.123,184.074 130.400 C 196.083 118.376,198.400 116.436,198.400 118.407 C 198.400 118.922,198.910 118.895,199.808 118.334 C 201.016 117.580,203.075 119.307,214.251 130.448 L 227.285 143.441 230.443 140.358 C 235.357 135.560,235.235 135.324,219.800 119.763 C 212.210 112.111,204.290 104.010,202.200 101.760 C 200.110 99.510,198.400 98.093,198.400 98.611 M193.168 151.487 C 185.392 159.375,185.450 158.395,192.345 165.222 C 195.675 168.520,198.400 171.571,198.400 172.001 C 198.400 172.963,210.714 160.198,211.020 158.919 C 211.141 158.413,208.441 155.249,205.020 151.887 L 198.800 145.773 193.168 151.487 M201.856 228.734 C 206.649 230.918,209.356 236.800,205.567 236.800 C 205.205 236.800,204.680 237.519,204.401 238.398 C 203.726 240.525,200.337 241.339,198.568 239.799 C 197.815 239.145,196.210 238.382,195.000 238.104 C 193.790 237.827,191.874 237.373,190.742 237.096 C 188.370 236.514,184.800 238.134,184.800 239.792 C 184.800 241.378,186.647 243.031,189.111 243.649 C 190.268 243.940,191.413 244.497,191.655 244.889 C 191.897 245.280,193.032 245.600,194.178 245.600 C 196.558 245.600,202.400 247.983,202.400 248.954 C 202.400 249.309,202.850 249.601,203.400 249.601 C 205.380 249.604,208.800 256.349,208.800 260.251 C 208.800 275.005,186.821 280.218,172.663 268.822 C 170.557 267.127,170.850 265.142,173.734 261.553 C 176.778 257.766,176.790 257.764,181.802 260.848 C 188.211 264.792,196.000 264.751,196.000 260.774 C 196.000 259.491,192.535 256.801,190.849 256.774 C 184.754 256.677,175.910 251.536,173.681 246.793 C 166.908 232.385,184.756 220.945,201.856 228.734 M325.022 228.602 C 333.165 232.967,334.209 235.455,329.835 240.071 C 326.280 243.823,326.427 243.809,322.273 240.800 C 311.043 232.665,296.911 243.594,302.325 256.226 C 305.476 263.575,315.596 265.990,321.630 260.833 C 325.222 257.763,325.708 257.806,329.638 261.544 C 334.205 265.888,333.325 267.787,324.434 272.781 C 320.337 275.082,306.601 275.125,301.896 272.852 C 281.997 263.238,285.061 232.137,306.400 227.135 C 310.996 226.058,321.873 226.915,325.022 228.602 M54.000 232.800 L 54.000 238.000 43.600 238.400 L 33.200 238.800 32.954 242.200 L 32.708 245.600 42.256 245.600 C 53.419 245.600,53.805 245.825,53.444 252.135 L 53.200 256.400 43.000 256.624 L 32.800 256.848 32.800 265.538 C 32.800 275.191,32.795 275.200,27.200 275.200 C 21.227 275.200,21.600 276.795,21.600 251.248 C 21.600 238.608,21.847 228.019,22.150 227.717 C 22.452 227.415,29.742 227.265,38.350 227.384 L 54.000 227.600 54.000 232.800 M69.135 227.686 C 70.224 228.104,70.400 230.190,70.400 242.708 C 70.400 260.508,71.557 263.333,78.847 263.333 C 85.991 263.333,87.200 260.313,87.200 242.462 C 87.200 227.128,87.170 227.200,93.600 227.200 C 99.951 227.200,100.001 227.306,99.994 240.760 C 99.983 262.325,97.632 269.224,88.864 273.427 C 85.289 275.141,70.344 275.433,69.800 273.800 C 69.617 273.250,68.924 272.800,68.261 272.800 C 65.224 272.800,60.428 266.404,58.663 260.000 C 56.984 253.908,57.246 229.086,59.000 228.064 C 60.542 227.166,67.138 226.920,69.135 227.686 M115.045 227.887 C 115.827 228.384,116.211 232.910,116.570 245.875 L 117.050 263.200 124.977 263.200 C 135.222 263.200,136.000 263.623,136.000 269.200 C 136.000 272.676,135.691 273.709,134.453 274.372 C 132.479 275.428,108.009 275.468,105.252 274.420 L 103.200 273.640 103.200 251.380 C 103.200 235.133,103.459 228.861,104.160 228.160 C 105.243 227.077,113.443 226.871,115.045 227.887 M150.215 245.400 L 150.431 263.200 158.615 263.211 C 170.520 263.227,170.400 263.166,170.400 269.193 C 170.400 275.329,170.764 275.200,153.447 275.200 C 136.763 275.200,138.400 277.797,138.400 251.332 C 138.400 225.878,138.076 227.022,145.193 227.367 L 150.000 227.600 150.215 245.400 M246.453 228.028 C 248.389 229.065,248.564 234.039,246.755 236.622 C 245.671 238.169,244.788 238.400,239.955 238.400 L 234.400 238.400 234.400 256.400 L 234.400 274.400 228.486 274.400 C 221.107 274.400,221.600 275.777,221.600 255.170 L 221.600 238.470 215.800 238.235 L 210.000 238.000 209.755 233.695 C 209.360 226.775,208.191 227.200,227.627 227.200 C 238.008 227.200,245.523 227.531,246.453 228.028 M273.108 229.172 C 273.819 230.256,274.400 231.507,274.400 231.950 C 274.400 232.393,275.339 234.836,276.488 237.378 C 279.002 242.945,280.295 245.884,281.863 249.600 C 282.513 251.140,283.838 254.200,284.807 256.400 C 287.134 261.681,288.422 264.684,289.609 267.600 C 290.147 268.920,290.917 270.645,291.320 271.433 C 292.525 273.785,291.384 274.400,285.816 274.400 C 280.424 274.400,277.600 273.116,277.600 270.665 C 277.600 270.067,277.257 268.953,276.839 268.189 C 276.420 267.425,275.555 265.540,274.917 264.000 C 274.279 262.460,272.874 259.220,271.796 256.800 C 270.717 254.380,269.168 250.739,268.352 248.708 C 266.962 245.245,264.800 244.766,264.800 247.921 C 264.800 248.380,263.873 250.836,262.739 253.378 C 261.606 255.920,260.215 259.080,259.648 260.400 C 259.081 261.720,257.708 264.780,256.596 267.200 C 255.485 269.620,254.367 272.230,254.113 273.000 C 253.727 274.168,252.654 274.400,247.625 274.400 C 240.553 274.400,240.111 273.568,243.510 266.674 C 245.231 263.184,246.931 259.332,248.751 254.800 C 249.104 253.920,250.296 251.220,251.399 248.800 C 253.191 244.871,254.728 241.324,256.773 236.400 C 260.682 226.985,260.413 227.228,266.908 227.212 C 271.249 227.201,271.965 227.428,273.108 229.172 M346.240 228.160 C 346.841 228.761,347.210 231.829,347.226 236.360 L 347.253 243.600 355.112 235.400 L 362.970 227.200 368.532 227.200 C 377.049 227.200,377.674 228.196,372.566 233.637 C 358.868 248.225,359.000 247.979,362.400 252.673 C 363.720 254.495,364.800 256.319,364.800 256.726 C 364.800 257.134,365.117 257.587,365.504 257.733 C 366.773 258.215,376.793 272.964,376.344 273.691 C 376.103 274.081,373.090 274.400,369.648 274.400 L 363.390 274.400 361.124 271.400 C 359.878 269.750,358.393 267.922,357.824 267.338 C 357.255 266.753,356.396 265.540,355.915 264.641 C 351.285 255.990,347.279 256.984,347.213 266.800 C 347.163 274.263,346.927 274.533,340.727 274.241 L 335.600 274.000 335.387 251.611 C 335.270 239.297,335.349 228.767,335.562 228.211 C 336.068 226.891,344.929 226.849,346.240 228.160 M268.800 260.509 C 268.800 261.121,269.116 262.247,269.502 263.011 C 274.628 273.148,274.292 274.400,266.447 274.400 C 259.360 274.400,258.778 274.056,260.441 270.851 C 261.078 269.622,261.600 267.960,261.600 267.156 C 261.600 266.352,261.960 265.472,262.400 265.200 C 262.840 264.928,263.200 264.055,263.200 263.261 C 263.200 260.775,266.373 257.382,267.682 258.468 C 268.297 258.978,268.800 259.897,268.800 260.509 M258.000 285.292 C 258.000 286.239,257.405 286.830,256.400 286.882 C 252.685 287.071,252.589 287.147,253.066 289.530 C 253.367 291.035,253.137 292.188,252.417 292.786 C 251.804 293.294,251.079 294.856,250.805 296.255 C 250.296 298.854,249.550 300.805,247.307 305.398 C 245.492 309.114,239.200 310.166,239.200 306.753 C 239.200 305.681,240.057 305.295,242.000 305.491 C 243.164 305.609,245.600 301.003,245.600 298.683 C 245.600 297.589,245.985 295.975,246.456 295.096 C 247.076 293.937,247.054 293.188,246.375 292.370 C 245.336 291.118,249.717 285.250,253.005 283.490 C 255.202 282.314,258.000 283.323,258.000 285.292 M64.600 288.202 C 67.113 289.414,67.083 292.800,64.560 292.800 C 63.548 292.800,62.314 292.394,61.819 291.899 C 59.272 289.352,55.772 292.847,56.589 297.120 C 56.992 299.228,62.400 300.419,62.400 298.400 C 62.400 297.960,63.300 297.600,64.400 297.600 C 67.936 297.600,67.100 301.210,63.090 303.256 C 55.066 307.350,47.329 296.723,53.229 289.712 C 55.880 286.561,60.051 286.007,64.600 288.202 M287.647 288.852 C 290.358 291.848,286.910 294.131,283.186 291.806 C 280.175 289.925,277.674 292.999,278.744 297.263 C 279.239 299.234,284.000 300.263,284.000 298.400 C 284.000 297.368,287.753 297.354,288.390 298.383 C 289.841 300.731,283.802 305.332,280.560 304.348 C 271.745 301.673,270.495 289.548,278.806 287.325 C 282.040 286.460,286.120 287.165,287.647 288.852 M319.291 289.297 C 321.864 292.035,321.855 298.374,319.275 301.120 C 314.317 306.398,307.768 304.889,304.869 297.800 C 301.591 289.785,313.277 282.895,319.291 289.297 M32.498 288.600 C 33.191 290.770,34.438 293.779,35.674 296.265 C 38.334 301.615,36.470 305.516,32.891 302.087 C 30.128 299.440,28.533 299.451,26.582 302.130 C 23.240 306.717,21.167 302.758,24.000 297.200 C 24.880 295.474,25.600 293.653,25.600 293.154 C 25.600 288.823,31.355 285.024,32.498 288.600 M91.543 288.457 C 92.234 289.149,92.800 290.233,92.800 290.868 C 92.800 291.503,93.107 292.647,93.482 293.411 C 96.483 299.521,96.907 300.802,96.427 302.316 C 95.713 304.564,94.064 304.443,92.143 302.000 C 91.278 300.900,89.853 300.000,88.977 300.000 C 88.101 300.000,86.794 300.900,86.074 302.000 C 83.861 305.377,80.039 303.484,82.172 300.068 C 82.626 299.342,83.251 297.589,83.562 296.174 C 83.873 294.758,84.459 293.600,84.864 293.600 C 85.269 293.600,85.600 292.818,85.600 291.863 C 85.600 288.181,89.203 286.117,91.543 288.457 M123.000 288.755 C 123.990 289.581,124.800 290.654,124.800 291.139 C 124.800 291.625,125.247 292.737,125.792 293.611 C 126.582 294.876,126.582 295.524,125.792 296.789 C 125.247 297.663,124.800 298.769,124.800 299.246 C 124.800 302.777,112.915 305.938,111.686 302.735 C 111.026 301.017,111.067 288.400,111.733 287.733 C 112.958 286.509,121.204 287.257,123.000 288.755 M150.822 288.035 C 151.544 289.205,149.704 291.200,147.902 291.200 C 145.559 291.200,146.123 293.461,148.538 293.747 C 151.620 294.112,151.808 295.910,148.880 297.015 C 145.917 298.133,145.650 299.200,148.333 299.200 C 150.415 299.200,151.161 300.348,150.566 302.638 C 150.258 303.829,149.488 304.035,146.097 303.838 L 142.000 303.600 141.767 296.463 C 141.639 292.538,141.717 288.848,141.942 288.263 C 142.435 286.978,150.047 286.782,150.822 288.035 M173.392 289.000 C 173.867 289.990,174.456 291.430,174.702 292.200 C 175.376 294.307,177.600 293.941,177.600 291.724 C 177.600 289.283,180.167 287.000,182.534 287.336 C 184.547 287.621,185.808 300.454,184.084 303.117 C 183.123 304.602,180.927 303.682,180.100 301.447 L 179.439 299.659 178.491 301.430 C 177.287 303.680,174.543 303.727,173.724 301.512 C 173.112 299.857,173.072 299.865,171.731 301.912 C 170.190 304.265,168.411 304.626,167.686 302.735 C 167.026 301.017,167.067 288.400,167.733 287.733 C 169.007 286.460,172.555 287.254,173.392 289.000 M204.500 289.493 L 205.441 291.387 206.812 289.293 C 207.567 288.142,208.874 287.200,209.717 287.200 C 211.566 287.200,212.568 289.352,211.306 290.614 C 210.808 291.112,210.400 292.168,210.400 292.960 C 210.400 293.752,210.040 294.400,209.600 294.400 C 209.160 294.400,208.800 295.760,208.800 297.422 C 208.800 300.657,206.991 304.000,205.240 304.000 C 203.940 304.000,203.200 302.246,203.200 299.163 C 203.200 297.895,202.272 295.195,201.139 293.165 C 200.005 291.134,199.284 288.936,199.535 288.280 C 200.213 286.514,203.408 287.295,204.500 289.493 M348.800 288.917 C 353.668 292.966,350.838 302.445,344.402 303.652 C 338.246 304.807,338.026 304.533,337.772 295.400 L 337.544 287.200 342.172 287.227 C 345.657 287.247,347.294 287.664,348.800 288.917 M376.542 288.481 C 377.121 289.991,375.550 291.171,372.933 291.188 C 370.103 291.206,371.288 293.157,374.310 293.454 C 377.316 293.750,377.580 296.229,374.650 296.648 C 371.567 297.089,370.578 299.200,373.455 299.200 C 376.264 299.200,377.120 300.132,376.398 302.407 C 375.734 304.498,368.467 304.772,367.686 302.735 C 367.026 301.017,367.067 288.400,367.733 287.733 C 368.900 286.567,376.040 287.172,376.542 288.481 M243.972 291.147 C 247.933 298.548,238.149 307.635,232.405 301.890 C 228.575 298.061,233.620 289.659,239.772 289.621 C 242.300 289.605,243.351 289.987,243.972 291.147 M116.000 295.200 C 116.000 298.486,116.250 299.195,117.400 299.175 C 121.452 299.101,122.933 294.658,119.628 292.492 C 116.555 290.478,116.000 290.893,116.000 295.200 M310.124 292.663 C 308.497 294.460,308.427 296.542,309.943 298.057 C 313.513 301.627,319.419 296.839,315.972 293.170 C 313.771 290.827,311.930 290.667,310.124 292.663 M341.600 295.200 C 341.600 298.754,341.791 299.200,343.312 299.200 C 346.791 299.200,348.163 295.363,345.600 292.800 C 342.800 290.000,341.600 290.719,341.600 295.200 M237.808 293.800 C 236.665 295.252,235.886 299.035,236.635 299.498 C 237.899 300.279,239.265 298.620,239.733 295.735 C 240.216 292.760,239.329 291.869,237.808 293.800 " stroke="none" fill="#ffffff" fill-rule="evenodd"></path><path id="path2" d="M194.891 75.884 C 191.434 77.542,142.985 126.277,141.370 129.721 C 139.560 133.579,139.638 137.656,141.593 141.407 C 143.571 145.201,194.452 196.000,196.275 196.000 C 197.448 196.000,197.600 194.659,197.600 184.317 L 197.600 172.634 191.200 166.156 C 187.680 162.593,184.800 159.347,184.800 158.941 C 184.800 158.536,187.680 155.254,191.200 151.648 L 197.600 145.091 197.600 131.954 L 197.600 118.818 184.556 131.844 C 170.081 146.299,170.768 145.986,165.517 140.521 C 160.550 135.352,160.409 135.592,180.020 115.925 L 197.641 98.256 197.420 86.516 L 197.200 74.776 194.891 75.884 M181.200 229.256 C 175.546 232.190,174.400 234.136,174.400 240.799 C 174.400 249.223,178.510 252.684,192.327 255.895 C 196.100 256.772,198.187 260.186,196.512 262.742 C 194.008 266.562,186.616 266.185,181.068 261.953 C 177.752 259.425,177.278 259.479,174.841 262.676 C 172.232 266.096,172.268 267.463,175.000 268.832 C 176.210 269.438,177.692 270.297,178.293 270.742 C 182.375 273.760,194.490 274.630,199.267 272.247 C 211.600 266.094,209.611 251.629,195.864 247.502 C 186.457 244.678,184.420 243.523,184.149 240.857 C 183.622 235.673,190.836 234.150,197.963 237.940 L 201.611 239.879 203.605 237.264 C 206.500 233.469,206.155 232.450,201.178 230.094 C 195.824 227.559,185.319 227.118,181.200 229.256 M211.800 228.543 C 210.734 228.828,210.400 229.762,210.400 232.459 L 210.400 236.000 215.943 236.000 C 224.290 236.000,224.000 235.279,224.000 256.057 L 224.000 273.600 228.314 273.600 C 233.833 273.600,233.600 274.429,233.600 254.800 C 233.600 234.766,233.171 236.000,240.129 236.000 L 245.688 236.000 245.444 232.200 L 245.200 228.400 229.200 228.285 C 220.400 228.221,212.570 228.338,211.800 228.543 M262.241 229.000 C 261.130 229.879,260.201 231.669,257.573 238.000 C 255.432 243.155,254.340 245.673,252.478 249.750 C 251.335 252.253,250.400 254.493,250.400 254.729 C 250.400 254.964,249.457 257.236,248.304 259.778 C 247.151 262.320,245.694 265.660,245.065 267.200 C 244.437 268.740,243.580 270.625,243.161 271.389 C 241.984 273.537,242.097 273.600,247.102 273.600 C 252.585 273.600,252.507 273.673,255.962 265.256 C 257.394 261.767,258.858 258.347,259.214 257.656 C 261.210 253.790,264.000 246.999,264.000 246.006 C 264.000 245.010,267.111 242.614,267.469 243.335 C 268.118 244.643,270.374 249.679,271.172 251.600 C 273.521 257.259,274.291 259.037,276.194 263.200 C 277.301 265.620,278.806 268.950,279.540 270.600 C 280.847 273.537,280.967 273.600,285.238 273.600 C 290.431 273.600,290.664 272.905,287.600 266.554 C 286.500 264.273,285.600 261.866,285.600 261.204 C 285.600 260.542,285.240 260.000,284.800 260.000 C 284.360 260.000,284.000 259.470,284.000 258.822 C 284.000 258.174,283.061 255.564,281.912 253.022 C 279.471 247.618,278.229 244.796,276.354 240.400 C 275.603 238.640,274.317 235.782,273.495 234.050 C 272.673 232.317,272.000 230.469,272.000 229.943 C 272.000 228.006,264.424 227.274,262.241 229.000 M303.600 229.494 C 285.388 237.796,285.550 264.263,303.860 272.112 C 311.629 275.442,323.129 273.543,328.807 267.993 L 331.416 265.443 328.591 262.617 L 325.766 259.792 322.745 262.096 C 315.994 267.246,305.016 264.881,301.129 257.440 C 294.145 244.072,312.234 229.576,323.244 239.717 C 325.892 242.157,326.322 242.103,328.974 239.000 C 331.815 235.676,331.770 234.900,328.600 232.571 C 321.961 227.692,310.616 226.296,303.600 229.494 M336.378 228.970 C 336.155 229.550,336.069 239.738,336.187 251.612 L 336.400 273.200 341.000 273.440 L 345.600 273.680 345.600 267.392 C 345.600 261.431,345.730 260.971,348.095 258.552 C 351.339 255.234,350.816 254.947,356.800 263.326 C 364.516 274.130,363.857 273.600,369.579 273.600 C 375.706 273.600,375.906 274.333,366.014 260.482 C 356.781 247.551,356.798 248.530,365.643 239.200 C 374.671 229.678,375.088 229.003,372.370 228.321 C 368.628 227.382,363.284 228.457,361.521 230.504 C 354.511 238.641,347.651 245.617,346.901 245.370 C 346.346 245.186,345.847 241.874,345.600 236.736 L 345.200 228.400 340.991 228.158 C 338.065 227.990,336.659 228.237,336.378 228.970 " stroke="none" fill="#df2229" fill-rule="evenodd"></path><path id="path3" d="M167.938 99.714 C 139.017 128.569,139.040 128.541,139.040 135.134 C 139.040 142.432,140.397 144.143,167.765 171.357 L 193.266 196.714 198.433 196.673 C 201.281 196.650,204.361 196.153,205.295 195.566 C 209.098 193.176,258.400 143.365,258.397 141.916 C 258.395 140.741,258.057 140.941,256.896 142.800 C 253.531 148.193,204.291 196.000,202.101 196.000 L 200.000 196.000 200.000 184.181 L 200.000 172.362 206.400 166.000 C 209.920 162.501,212.800 159.315,212.800 158.921 C 212.800 158.527,209.920 155.254,206.400 151.648 L 200.000 145.091 200.000 132.145 C 200.000 125.025,200.303 119.200,200.673 119.200 C 201.043 119.200,207.073 124.766,214.073 131.569 C 228.578 145.665,227.613 145.194,231.932 140.287 C 236.433 135.175,236.608 135.548,223.400 122.153 C 216.910 115.572,208.990 107.536,205.800 104.297 L 200.000 98.406 200.000 86.403 C 200.000 79.801,200.319 74.400,200.709 74.400 C 201.098 74.400,202.425 74.923,203.657 75.562 C 205.961 76.757,255.644 125.704,257.353 128.462 C 258.053 129.592,258.318 129.685,258.353 128.813 C 258.394 127.777,211.043 80.009,205.513 75.506 C 203.941 74.227,202.279 73.800,198.716 73.762 L 194.000 73.712 167.938 99.714 M198.400 86.034 L 198.400 97.669 202.200 101.760 C 204.290 104.010,212.210 112.111,219.800 119.763 C 235.235 135.324,235.357 135.560,230.443 140.358 L 227.285 143.441 214.251 130.448 C 203.075 119.307,201.016 117.580,199.808 118.334 C 198.910 118.895,198.400 118.922,198.400 118.407 C 198.400 116.436,196.083 118.376,184.074 130.400 C 169.369 145.123,171.204 144.085,167.168 139.968 C 162.615 135.322,162.380 135.709,181.200 116.818 C 190.660 107.322,198.400 99.298,198.400 98.986 C 198.400 98.675,190.300 106.546,180.400 116.479 C 159.959 136.988,161.258 134.847,166.109 140.034 C 170.982 145.243,169.817 145.804,184.356 131.244 C 191.362 124.228,197.388 118.669,197.747 118.891 C 198.106 119.113,198.400 125.099,198.400 132.193 L 198.400 145.091 192.000 151.648 C 188.480 155.254,185.600 158.527,185.600 158.921 C 185.600 159.315,188.480 162.501,192.000 166.000 C 195.520 169.499,198.400 172.105,198.400 171.791 C 198.400 171.476,195.700 168.545,192.400 165.277 C 185.173 158.120,185.139 159.705,192.678 152.074 L 198.957 145.720 205.078 151.878 C 212.502 159.345,212.527 158.047,204.800 166.096 L 198.400 172.762 198.400 184.381 L 198.400 196.000 196.253 196.000 C 193.918 196.000,145.851 149.126,141.920 143.016 C 139.096 138.626,139.184 131.220,142.107 127.389 C 144.993 123.605,190.058 78.427,193.129 76.239 C 198.181 72.639,198.400 73.046,198.400 86.034 M258.545 135.600 C 258.528 139.836,258.624 140.132,259.356 138.121 C 259.922 136.568,259.927 135.038,259.375 133.321 C 258.634 131.020,258.562 131.219,258.545 135.600 M183.130 227.145 C 164.940 230.700,171.654 256.470,190.849 256.774 C 192.535 256.801,196.000 259.491,196.000 260.774 C 196.000 264.751,188.211 264.792,181.802 260.848 C 179.614 259.502,177.473 258.400,177.045 258.400 C 175.820 258.400,171.200 264.546,171.200 266.175 C 171.200 268.876,180.111 274.449,184.298 274.367 C 185.332 274.347,184.576 273.798,182.369 272.967 C 172.089 269.098,170.514 266.967,174.429 262.218 C 177.024 259.069,177.809 259.020,181.761 261.757 C 187.315 265.603,195.341 265.805,196.305 262.122 C 196.905 259.827,194.851 256.933,192.190 256.325 C 177.542 252.977,174.000 249.924,174.000 240.644 L 174.000 234.217 177.371 231.226 C 181.915 227.193,193.605 226.201,201.200 229.203 C 202.370 229.665,202.577 229.592,201.972 228.930 C 200.130 226.915,189.473 225.905,183.130 227.145 M306.159 227.120 C 303.342 227.714,300.240 229.600,302.080 229.600 C 302.520 229.600,303.290 229.190,303.792 228.688 C 305.114 227.366,321.989 227.463,323.602 228.802 C 324.282 229.366,325.041 229.626,325.288 229.379 C 327.117 227.550,312.375 225.809,306.159 227.120 M21.951 228.240 C 21.724 228.831,21.657 232.888,21.802 237.257 L 22.065 245.200 22.233 236.583 L 22.400 227.965 37.800 228.183 L 53.200 228.400 53.200 232.400 L 53.200 236.400 43.437 236.800 C 32.407 237.252,31.795 237.560,32.149 242.491 L 32.400 246.000 41.785 246.225 C 52.369 246.479,53.120 246.923,52.646 252.634 L 52.400 255.600 42.400 256.051 L 32.400 256.501 42.800 256.451 L 53.200 256.400 53.444 252.135 C 53.805 245.825,53.419 245.600,42.256 245.600 L 32.708 245.600 32.954 242.200 L 33.200 238.800 43.600 238.400 L 54.000 238.000 54.000 232.800 L 54.000 227.600 38.181 227.383 C 25.532 227.210,22.280 227.381,21.951 228.240 M59.000 228.064 C 57.246 229.086,56.984 253.908,58.663 260.000 C 60.368 266.185,65.212 272.800,68.036 272.800 C 68.575 272.800,67.977 271.998,66.708 271.019 C 60.142 265.951,59.600 263.952,59.600 244.800 L 59.600 228.400 64.400 228.400 L 69.200 228.400 69.630 241.600 L 70.060 254.800 70.230 241.486 C 70.377 229.980,70.228 228.105,69.135 227.686 C 67.138 226.920,60.542 227.166,59.000 228.064 M88.160 228.160 C 87.490 228.830,87.200 233.152,87.200 242.462 C 87.200 260.350,85.998 263.333,78.788 263.333 C 75.221 263.333,71.204 260.545,71.201 258.067 C 71.200 257.663,70.970 257.564,70.688 257.845 C 69.573 258.960,74.443 263.936,77.147 264.443 C 85.326 265.977,87.508 261.735,88.000 243.345 L 88.400 228.400 93.200 228.400 L 98.000 228.400 98.400 244.400 C 98.695 256.180,98.956 259.240,99.393 256.000 C 100.380 248.678,100.134 229.254,99.040 228.160 C 97.794 226.914,89.406 226.914,88.160 228.160 M104.085 228.297 C 102.711 229.953,103.223 273.791,104.620 274.074 C 105.181 274.187,105.271 274.097,104.820 273.873 C 103.908 273.421,103.810 246.558,104.679 235.200 L 105.200 228.400 110.000 228.400 L 114.800 228.400 115.200 246.000 L 115.600 263.600 124.800 264.000 L 134.000 264.400 134.000 269.200 L 134.000 274.000 120.000 274.429 L 106.000 274.857 119.453 275.029 C 135.665 275.235,136.000 275.117,136.000 269.200 C 136.000 263.623,135.222 263.200,124.977 263.200 L 117.050 263.200 116.570 245.875 C 116.211 232.910,115.827 228.384,115.045 227.887 C 113.289 226.774,105.095 227.080,104.085 228.297 M139.360 228.160 C 138.256 229.264,137.941 273.222,139.033 273.897 C 139.381 274.112,139.518 273.020,139.337 271.471 C 139.156 269.922,139.273 259.479,139.596 248.263 L 140.184 227.872 145.218 228.136 C 147.987 228.281,150.084 228.130,149.879 227.800 C 149.267 226.817,140.400 227.120,139.360 228.160 M209.929 228.295 C 209.698 228.898,209.620 231.328,209.755 233.695 L 210.000 238.000 215.800 238.235 L 221.600 238.470 221.600 255.170 C 221.600 272.823,221.792 274.437,223.886 274.337 C 224.716 274.297,224.831 274.125,224.200 273.870 C 223.443 273.565,223.200 269.243,223.200 256.093 C 223.200 235.991,223.509 236.800,215.840 236.800 L 210.400 236.800 210.400 232.415 L 210.400 228.031 228.200 227.799 L 246.000 227.568 228.175 227.384 C 213.699 227.235,210.271 227.406,209.929 228.295 M261.118 227.812 C 260.633 228.136,259.613 229.840,258.851 231.600 C 258.089 233.360,257.111 235.465,256.677 236.278 C 256.244 237.091,256.085 237.952,256.324 238.191 C 256.564 238.431,257.488 236.866,258.379 234.713 C 261.022 228.324,260.903 228.421,266.496 228.168 L 271.625 227.935 272.683 230.568 C 273.265 232.015,273.912 232.772,274.121 232.249 C 275.580 228.594,265.239 225.066,261.118 227.812 M335.733 227.733 C 334.994 228.473,335.059 273.418,335.800 273.877 C 336.130 274.081,336.299 263.825,336.176 251.085 L 335.953 227.922 340.976 228.161 L 346.000 228.400 346.400 237.129 L 346.800 245.858 353.600 238.365 C 357.340 234.244,361.014 230.242,361.764 229.472 C 362.755 228.455,364.728 227.996,368.964 227.795 L 374.800 227.518 368.885 227.359 L 362.970 227.200 355.112 235.400 L 347.253 243.600 347.226 236.360 C 347.210 231.829,346.841 228.761,346.240 228.160 C 345.236 227.156,336.659 226.808,335.733 227.733 M246.243 232.179 L 246.000 236.400 240.800 236.642 C 233.444 236.985,232.635 238.400,239.795 238.400 C 246.391 238.400,248.000 237.120,248.000 231.869 C 248.000 227.181,246.515 227.443,246.243 232.179 M375.200 228.712 C 375.200 229.155,374.261 230.526,373.112 231.759 C 366.087 239.300,359.511 246.694,358.958 247.673 C 358.514 248.457,361.028 252.587,367.071 261.005 C 374.209 270.947,375.584 273.300,374.513 273.744 C 373.316 274.240,373.319 274.292,374.553 274.344 C 375.297 274.375,376.103 274.081,376.344 273.691 C 376.793 272.964,366.773 258.215,365.504 257.733 C 365.117 257.587,364.800 257.134,364.800 256.726 C 364.800 256.319,363.720 254.495,362.400 252.673 C 359.438 248.585,359.442 248.266,362.481 244.800 C 367.292 239.315,370.696 235.554,373.801 232.293 C 375.762 230.234,376.620 228.783,376.075 228.446 C 375.594 228.149,375.200 228.268,375.200 228.712 M204.476 231.054 C 205.398 231.825,206.359 232.983,206.613 233.628 C 206.994 234.598,207.085 234.580,207.137 233.524 C 207.203 232.184,204.799 229.581,203.537 229.627 C 203.132 229.641,203.554 230.284,204.476 231.054 M296.700 232.215 C 293.073 235.449,289.580 240.992,289.663 243.384 C 289.702 244.497,289.880 244.736,290.123 244.000 C 291.495 239.854,294.423 235.420,297.567 232.724 C 299.565 231.012,300.840 229.615,300.400 229.621 C 299.960 229.626,298.295 230.794,296.700 232.215 M329.000 232.104 C 332.693 235.121,332.709 235.715,329.202 239.433 C 325.896 242.938,325.628 242.984,323.256 240.460 C 319.291 236.239,309.414 236.137,304.922 240.272 C 292.143 252.034,307.454 271.448,321.884 261.778 C 325.834 259.131,326.873 259.276,329.903 262.901 L 332.206 265.656 328.912 268.697 C 327.100 270.370,324.125 272.231,322.300 272.833 C 320.476 273.435,319.427 274.076,319.970 274.257 C 321.997 274.932,331.668 268.707,332.458 266.219 C 332.810 265.107,332.039 263.828,329.638 261.544 C 325.708 257.806,325.222 257.763,321.630 260.833 C 315.596 265.990,305.476 263.575,302.325 256.226 C 296.911 243.594,311.043 232.665,322.273 240.800 C 324.095 242.120,325.875 243.200,326.228 243.200 C 327.377 243.200,332.800 236.978,332.800 235.660 C 332.800 234.300,328.152 229.645,326.800 229.650 C 326.360 229.652,327.350 230.756,329.000 232.104 M274.442 234.051 C 274.419 234.519,275.281 236.679,276.358 238.851 C 277.435 241.023,278.335 242.417,278.358 241.949 C 278.381 241.481,277.519 239.321,276.442 237.149 C 275.365 234.977,274.465 233.583,274.442 234.051 M203.829 237.762 C 201.947 240.203,201.690 240.298,199.578 239.336 C 197.571 238.421,197.441 238.445,198.363 239.556 C 199.681 241.144,202.042 241.152,203.368 239.572 C 203.936 238.897,204.893 237.800,205.495 237.134 C 206.098 236.468,206.420 235.753,206.211 235.545 C 206.003 235.336,204.931 236.334,203.829 237.762 M185.800 237.340 C 182.592 239.577,183.859 242.436,189.038 244.645 C 191.711 245.786,192.240 245.835,191.655 244.889 C 191.413 244.497,190.268 243.940,189.111 243.649 C 186.647 243.031,184.800 241.378,184.800 239.792 C 184.800 238.061,188.370 236.516,190.942 237.134 C 196.540 238.479,197.252 238.500,194.508 237.238 C 191.132 235.685,188.121 235.720,185.800 237.340 M233.600 256.341 C 233.600 271.994,233.478 273.514,232.200 273.849 C 231.146 274.124,231.245 274.237,232.600 274.307 L 234.400 274.400 234.400 256.800 C 234.400 247.120,234.220 239.200,234.000 239.200 C 233.780 239.200,233.600 246.914,233.600 256.341 M254.600 241.386 C 253.177 244.422,253.367 245.666,254.827 242.866 C 255.496 241.582,255.944 240.244,255.822 239.892 C 255.700 239.540,255.150 240.212,254.600 241.386 M278.425 243.753 C 278.411 244.277,278.760 244.928,279.200 245.200 C 279.640 245.472,280.024 246.303,280.054 247.047 C 280.122 248.733,286.271 261.578,286.346 260.189 C 286.376 259.633,286.049 258.553,285.620 257.789 C 283.919 254.757,280.800 247.649,280.800 246.803 C 280.800 245.573,278.457 242.563,278.425 243.753 M265.324 245.463 C 264.596 246.268,264.000 247.506,264.000 248.216 C 264.000 248.925,263.640 249.728,263.200 250.000 C 262.760 250.272,262.413 251.103,262.428 251.847 C 262.462 253.453,264.725 249.875,264.772 248.143 C 264.861 244.802,266.914 245.125,268.352 248.708 C 269.168 250.739,270.717 254.380,271.796 256.800 C 272.874 259.220,274.279 262.460,274.917 264.000 C 275.555 265.540,276.420 267.425,276.839 268.189 C 277.257 268.953,277.600 270.067,277.600 270.665 C 277.600 271.263,278.337 272.419,279.238 273.234 C 280.588 274.456,280.447 273.853,278.438 269.803 C 277.097 267.101,276.000 264.667,276.000 264.395 C 276.000 264.123,275.065 261.853,273.922 259.350 C 272.779 256.848,271.321 253.540,270.683 252.000 C 270.045 250.460,269.180 248.575,268.761 247.811 C 268.343 247.047,268.000 245.877,268.000 245.211 C 268.000 243.584,266.934 243.684,265.324 245.463 M196.400 246.901 C 198.160 247.571,200.230 248.455,201.000 248.866 C 201.770 249.277,202.400 249.320,202.400 248.961 C 202.400 248.080,196.646 245.590,194.731 245.641 C 193.887 245.664,194.636 246.229,196.400 246.901 M251.166 249.312 C 250.217 251.450,249.141 253.920,248.774 254.800 C 246.152 261.099,245.195 263.256,243.510 266.674 C 241.550 270.649,240.999 274.400,242.375 274.400 C 242.801 274.400,242.933 273.836,242.669 273.146 C 242.404 272.456,242.566 271.106,243.029 270.146 C 245.050 265.954,248.000 259.263,248.000 258.871 C 248.000 258.396,251.692 250.035,252.924 247.722 C 253.357 246.909,253.526 246.060,253.301 245.834 C 253.075 245.609,252.115 247.174,251.166 249.312 M288.337 248.456 C 288.042 250.027,288.169 252.457,288.619 253.856 C 289.355 256.146,289.445 255.861,289.518 251.000 C 289.608 245.041,289.159 244.074,288.337 248.456 M206.911 254.800 C 207.265 255.680,207.553 258.200,207.553 260.400 C 207.553 262.600,207.265 265.120,206.911 266.000 C 206.279 267.577,206.288 267.577,207.535 266.047 C 208.321 265.082,208.800 262.945,208.800 260.400 C 208.800 257.855,208.321 255.718,207.535 254.753 C 206.288 253.223,206.279 253.223,206.911 254.800 M260.000 257.200 C 259.098 259.305,258.535 261.202,258.750 261.417 C 258.965 261.631,259.552 260.770,260.056 259.503 C 260.560 258.237,261.318 256.535,261.742 255.722 C 262.165 254.909,262.315 254.048,262.076 253.809 C 261.836 253.569,260.902 255.095,260.000 257.200 M289.663 258.216 C 289.471 263.727,300.908 274.525,306.750 274.351 C 307.658 274.323,306.676 273.727,304.569 273.024 C 298.242 270.915,292.501 264.786,290.123 257.600 C 289.880 256.864,289.702 257.103,289.663 258.216 M348.441 258.692 C 346.553 260.442,346.412 261.056,346.557 266.892 L 346.713 273.200 346.967 267.600 C 347.448 257.018,351.175 255.785,355.915 264.641 C 356.396 265.540,357.255 266.753,357.824 267.338 C 358.393 267.922,359.878 269.750,361.124 271.400 C 362.370 273.050,363.778 274.400,364.252 274.400 C 364.726 274.400,364.032 273.230,362.710 271.800 C 361.388 270.370,358.249 266.410,355.734 263.000 C 350.492 255.891,351.085 256.242,348.441 258.692 M264.882 259.678 C 263.957 260.854,263.200 262.466,263.200 263.261 C 263.200 264.055,262.840 264.928,262.400 265.200 C 261.960 265.472,261.602 266.483,261.605 267.447 C 261.609 269.012,261.738 268.955,262.805 266.909 C 263.462 265.648,264.000 264.174,264.000 263.633 C 264.000 262.623,266.500 260.000,267.463 260.000 C 267.758 260.000,268.000 260.651,268.000 261.447 C 268.000 263.444,270.338 266.595,270.375 264.647 C 270.389 263.903,270.040 263.072,269.600 262.800 C 269.160 262.528,268.800 261.651,268.800 260.851 C 268.800 257.969,266.717 257.345,264.882 259.678 M96.091 265.192 C 94.426 268.332,91.548 270.899,86.800 273.481 C 84.341 274.818,86.632 274.561,89.376 273.192 C 92.598 271.584,95.764 268.338,97.332 265.035 C 99.238 261.019,98.238 261.146,96.091 265.192 M286.475 262.000 C 286.520 263.550,290.268 270.782,290.333 269.447 C 290.370 268.703,290.040 267.872,289.600 267.600 C 289.160 267.328,288.800 266.476,288.800 265.706 C 288.800 264.936,288.271 263.607,287.625 262.753 C 286.979 261.899,286.462 261.560,286.475 262.000 M256.841 264.601 C 256.276 265.811,255.470 267.465,255.051 268.278 C 254.632 269.091,254.474 269.940,254.699 270.166 C 254.925 270.391,255.896 268.902,256.857 266.857 C 257.819 264.812,258.440 262.973,258.237 262.770 C 258.035 262.568,257.407 263.392,256.841 264.601 M158.800 263.788 C 168.839 264.070,169.600 264.514,169.600 270.086 C 169.600 272.042,169.179 273.637,168.600 273.870 C 168.003 274.111,168.164 274.299,169.000 274.337 C 170.194 274.391,170.400 273.648,170.400 269.293 C 170.400 263.111,170.484 263.152,158.400 263.381 L 150.000 263.540 158.800 263.788 M270.854 268.000 C 271.158 269.100,271.451 270.990,271.504 272.200 C 271.557 273.410,271.870 274.400,272.200 274.400 C 273.249 274.400,272.790 270.077,271.522 268.000 L 270.300 266.000 270.854 268.000 M203.961 269.828 C 202.102 271.508,199.460 273.002,196.800 273.878 C 196.140 274.096,196.500 274.291,197.600 274.311 C 198.700 274.332,200.162 273.911,200.848 273.375 C 205.490 269.750,206.602 268.736,206.284 268.417 C 206.085 268.219,205.040 268.854,203.961 269.828 M260.068 271.400 C 259.250 273.565,259.637 274.404,261.447 274.388 C 262.512 274.378,262.568 274.229,261.714 273.688 C 261.033 273.256,260.830 272.366,261.168 271.300 C 261.890 269.027,260.932 269.114,260.068 271.400 M252.600 272.933 C 251.415 274.174,251.389 274.400,252.425 274.400 C 253.099 274.400,253.863 273.844,254.124 273.165 C 254.818 271.357,254.195 271.262,252.600 272.933 M290.400 272.173 C 290.400 272.885,289.950 273.648,289.400 273.870 C 288.784 274.119,288.920 274.298,289.753 274.337 C 291.517 274.419,292.425 272.905,291.290 271.770 C 290.637 271.117,290.400 271.224,290.400 272.173 M25.000 274.973 C 26.210 275.156,28.190 275.156,29.400 274.973 C 30.610 274.790,29.620 274.640,27.200 274.640 C 24.780 274.640,23.790 274.790,25.000 274.973 M75.782 274.977 C 77.202 275.154,79.722 275.157,81.382 274.984 C 83.042 274.811,81.880 274.666,78.800 274.663 C 75.720 274.659,74.362 274.801,75.782 274.977 M147.439 274.996 C 151.311 275.143,157.431 275.142,161.039 274.995 C 164.648 274.847,161.480 274.726,154.000 274.727 C 146.520 274.728,143.568 274.849,147.439 274.996 M253.005 283.490 C 249.717 285.250,245.336 291.118,246.375 292.370 C 247.054 293.188,247.076 293.937,246.456 295.096 C 245.985 295.975,245.624 297.528,245.654 298.547 C 245.688 299.755,246.103 299.147,246.845 296.800 C 247.471 294.820,247.810 292.730,247.600 292.156 C 246.687 289.670,251.802 284.529,255.400 284.317 C 258.513 284.133,258.147 285.446,255.000 285.749 C 252.669 285.974,252.373 286.289,252.143 288.800 C 252.002 290.340,251.552 291.942,251.143 292.360 C 250.734 292.778,250.423 293.858,250.451 294.760 C 250.500 296.359,250.519 296.357,251.195 294.682 C 251.576 293.737,252.261 292.733,252.718 292.451 C 253.175 292.168,253.335 290.876,253.074 289.569 C 252.589 287.143,252.677 287.071,256.400 286.882 C 258.538 286.773,258.509 283.972,256.361 283.177 C 255.435 282.835,253.976 282.971,253.005 283.490 M59.646 287.275 C 59.893 287.674,60.855 288.000,61.784 288.000 C 62.714 288.000,64.132 288.596,64.937 289.324 C 65.742 290.052,66.400 290.293,66.400 289.859 C 66.400 289.425,65.590 288.680,64.600 288.202 C 62.036 286.965,59.117 286.419,59.646 287.275 M278.914 287.223 C 276.143 288.053,273.600 290.236,273.600 291.785 C 273.600 292.428,274.502 291.851,275.671 290.461 C 276.810 289.108,278.409 288.000,279.224 288.000 C 280.039 288.000,280.928 287.640,281.200 287.200 C 281.472 286.760,281.583 286.431,281.447 286.469 C 281.311 286.507,280.171 286.846,278.914 287.223 M313.271 287.316 C 313.504 287.692,314.517 288.000,315.523 288.000 C 317.352 288.000,319.402 289.741,320.232 292.000 C 320.610 293.028,320.683 293.019,320.737 291.939 C 320.824 290.210,317.663 287.486,315.024 287.018 C 313.828 286.805,313.039 286.939,313.271 287.316 M26.755 289.981 C 26.005 291.563,25.585 293.051,25.822 293.288 C 26.059 293.526,26.718 292.433,27.287 290.860 C 28.421 287.724,30.540 287.066,31.990 289.400 C 32.784 290.680,32.839 290.663,32.623 289.200 C 32.172 286.148,28.332 286.659,26.755 289.981 M53.271 289.661 C 47.333 296.719,55.026 307.370,63.090 303.256 C 67.100 301.210,67.936 297.600,64.400 297.600 C 63.300 297.600,62.400 297.938,62.400 298.352 C 62.400 298.765,61.230 299.254,59.800 299.437 C 57.324 299.755,57.333 299.763,60.000 299.615 C 61.540 299.529,63.467 299.168,64.281 298.813 C 66.815 297.707,65.509 301.031,62.922 302.270 C 53.744 306.669,47.442 293.133,56.476 288.422 C 58.508 287.362,58.583 287.209,57.071 287.205 C 56.118 287.202,54.412 288.305,53.271 289.661 M86.924 288.663 C 86.196 289.468,85.614 290.638,85.632 291.263 C 85.650 291.888,86.213 291.388,86.883 290.151 C 87.582 288.863,88.642 288.009,89.365 288.151 C 90.660 288.406,90.909 288.774,93.054 293.600 C 93.738 295.140,94.321 295.791,94.349 295.047 C 94.377 294.303,94.040 293.472,93.600 293.200 C 93.160 292.928,92.800 292.033,92.800 291.210 C 92.800 287.779,89.154 286.199,86.924 288.663 M111.733 287.733 C 111.067 288.400,111.026 301.017,111.686 302.735 C 112.254 304.217,118.080 304.488,120.000 303.121 C 120.902 302.480,120.426 302.375,118.088 302.702 C 112.705 303.453,112.000 302.534,112.000 294.772 L 112.000 288.000 116.742 288.000 C 120.912 288.000,121.684 288.254,123.142 290.108 C 124.054 291.267,124.800 291.775,124.800 291.236 C 124.800 288.302,114.047 285.420,111.733 287.733 M142.122 287.800 C 141.917 288.130,143.737 288.274,146.168 288.121 C 151.004 287.815,152.086 289.612,147.544 290.406 C 145.359 290.788,143.596 293.600,145.541 293.600 C 146.014 293.600,146.400 293.060,146.400 292.400 C 146.400 291.740,147.076 291.200,147.902 291.200 C 149.704 291.200,151.544 289.205,150.822 288.035 C 150.235 287.086,142.692 286.882,142.122 287.800 M167.733 287.733 C 166.908 288.559,167.128 301.849,167.989 303.200 C 168.955 304.715,170.766 303.695,172.654 300.572 C 173.840 298.610,173.857 298.255,172.800 297.598 C 171.859 297.012,171.490 297.373,171.093 299.266 C 169.802 305.412,168.000 302.783,168.000 294.753 C 168.000 287.157,170.359 285.069,173.142 290.200 C 173.799 291.410,174.339 291.860,174.343 291.200 C 174.359 288.277,169.656 285.811,167.733 287.733 M178.958 288.625 C 178.211 289.451,177.614 290.638,177.632 291.263 C 177.650 291.888,178.201 291.410,178.858 290.200 C 181.626 285.096,184.000 287.158,184.000 294.667 C 184.000 298.333,183.785 301.549,183.522 301.812 C 182.526 302.808,180.800 301.351,180.800 299.514 C 180.800 298.346,180.332 297.600,179.600 297.600 C 178.922 297.600,178.400 298.316,178.400 299.247 C 178.400 300.153,178.719 300.697,179.109 300.456 C 179.499 300.215,180.005 300.732,180.233 301.605 C 180.768 303.650,183.137 304.580,184.084 303.117 C 187.745 297.463,183.028 284.129,178.958 288.625 M199.535 288.280 C 199.284 288.936,200.005 291.134,201.139 293.165 C 202.272 295.195,203.200 297.895,203.200 299.163 C 203.200 302.246,203.940 304.000,205.240 304.000 C 206.977 304.000,208.800 300.666,208.800 297.489 C 208.800 295.863,209.214 294.395,209.720 294.227 C 210.226 294.058,210.466 293.399,210.254 292.762 C 209.700 291.100,208.051 294.414,207.330 298.637 C 206.563 303.130,204.560 303.196,203.966 298.747 C 203.727 296.958,202.737 294.147,201.766 292.501 C 199.578 288.793,199.556 288.000,201.642 288.000 C 202.752 288.000,203.558 288.789,204.134 290.440 C 205.033 293.019,208.000 291.927,208.000 289.017 C 208.000 288.360,208.590 288.004,209.400 288.170 C 210.285 288.352,210.702 289.036,210.533 290.029 C 210.326 291.250,210.483 291.389,211.239 290.654 C 211.775 290.133,211.996 289.143,211.731 288.454 C 210.988 286.517,208.335 286.970,206.812 289.293 L 205.441 291.387 204.500 289.493 C 203.408 287.295,200.213 286.514,199.535 288.280 M283.600 287.775 C 285.411 288.216,288.000 290.305,288.000 291.324 C 288.000 292.294,285.278 292.158,284.257 291.137 C 282.749 289.629,279.174 290.653,277.757 293.000 C 275.187 297.258,280.214 301.654,284.829 299.185 C 286.896 298.078,287.517 298.542,286.837 300.684 C 285.682 304.323,277.509 303.435,275.006 299.399 C 274.039 297.840,273.636 297.596,273.621 298.559 C 273.598 300.038,277.738 303.492,280.560 304.348 C 283.802 305.332,289.841 300.731,288.390 298.383 C 287.753 297.354,284.000 297.368,284.000 298.400 C 284.000 300.263,279.239 299.234,278.744 297.263 C 277.674 292.999,280.175 289.925,283.186 291.806 C 285.368 293.168,287.953 293.054,288.522 291.570 C 289.206 289.789,286.499 287.185,284.076 287.293 C 282.416 287.367,282.321 287.464,283.600 287.775 M307.322 288.694 C 306.375 289.515,305.600 290.478,305.600 290.833 C 305.600 291.188,306.410 290.732,307.400 289.819 C 308.390 288.907,309.920 287.986,310.800 287.773 C 312.337 287.401,312.334 287.382,310.722 287.293 C 309.800 287.242,308.270 287.872,307.322 288.694 M337.599 287.800 C 337.598 288.130,339.677 288.282,342.218 288.138 C 347.834 287.820,349.628 289.313,350.522 295.049 L 351.106 298.800 350.873 294.625 C 350.558 288.985,348.539 287.263,342.200 287.227 C 339.670 287.212,337.599 287.470,337.599 287.800 M367.733 287.733 C 367.067 288.400,367.026 301.017,367.686 302.735 C 368.467 304.772,375.734 304.498,376.398 302.407 C 377.120 300.132,376.264 299.200,373.455 299.200 C 371.367 299.200,371.152 299.022,372.000 298.000 C 372.819 297.014,372.754 296.800,371.639 296.800 C 369.474 296.800,370.526 299.561,372.808 299.868 C 377.400 300.485,375.209 303.586,370.560 303.049 C 368.406 302.801,368.399 302.779,368.170 295.400 L 367.940 288.000 372.037 288.000 C 376.651 288.000,377.378 289.812,372.938 290.251 C 370.568 290.485,368.928 293.600,371.175 293.600 C 371.601 293.600,371.743 293.060,371.489 292.400 C 371.161 291.544,371.570 291.196,372.914 291.188 C 375.548 291.171,377.123 289.995,376.542 288.481 C 376.040 287.172,368.900 286.567,367.733 287.733 M233.800 292.495 C 228.195 298.646,232.464 306.240,239.618 302.845 C 244.318 300.615,246.254 295.412,243.972 291.147 C 242.464 288.330,236.927 289.064,233.800 292.495 M56.445 292.178 C 55.010 294.228,54.884 295.895,56.035 297.600 C 56.678 298.552,56.815 298.386,56.699 296.800 C 56.617 295.700,56.607 294.177,56.676 293.415 C 56.832 291.677,60.428 290.696,61.966 291.972 C 62.596 292.495,63.942 292.764,64.956 292.570 C 66.625 292.251,66.596 292.208,64.647 292.109 C 63.463 292.049,62.272 291.640,62.000 291.200 C 61.109 289.758,57.723 290.355,56.445 292.178 M115.360 295.000 C 115.619 299.956,118.275 301.843,120.766 298.840 C 121.401 298.076,121.469 297.600,120.945 297.600 C 120.477 297.600,119.872 297.960,119.600 298.400 C 118.029 300.941,116.000 299.138,116.000 295.200 C 116.000 290.847,116.524 290.487,119.828 292.569 L 122.000 293.937 120.476 292.169 C 117.338 288.527,115.087 289.772,115.360 295.000 M242.453 291.228 C 245.861 293.052,243.031 301.600,239.018 301.600 C 237.510 301.600,237.465 301.467,238.544 300.200 C 242.119 296.002,241.827 290.242,238.111 291.668 C 236.698 292.210,234.477 298.957,235.406 299.886 C 236.735 301.215,235.308 302.514,233.551 301.574 C 231.564 300.510,231.515 296.209,233.466 294.000 C 236.451 290.618,239.535 289.667,242.453 291.228 M309.679 292.200 C 308.603 293.952,308.616 293.963,310.150 292.600 C 312.210 290.770,313.818 290.831,315.604 292.805 C 316.403 293.688,317.237 294.230,317.457 294.010 C 317.677 293.790,317.203 292.888,316.404 292.005 C 314.437 289.831,311.075 289.928,309.679 292.200 M340.800 295.198 L 340.800 300.101 343.257 299.851 C 349.099 299.255,348.810 291.250,342.921 290.547 C 340.830 290.297,340.800 290.362,340.800 295.198 M345.600 292.800 C 348.163 295.363,346.791 299.200,343.312 299.200 C 341.791 299.200,341.600 298.754,341.600 295.200 C 341.600 290.719,342.800 290.000,345.600 292.800 M304.343 293.942 C 304.075 295.010,304.237 296.540,304.703 297.342 C 305.398 298.536,305.556 298.185,305.576 295.400 C 305.603 291.611,305.083 290.996,304.343 293.942 M88.546 293.907 C 88.284 294.590,88.389 295.346,88.780 295.587 C 89.800 296.218,90.408 294.908,89.659 293.695 C 89.162 292.891,88.918 292.938,88.546 293.907 M124.800 295.200 C 124.800 296.659,125.132 297.489,125.600 297.200 C 126.040 296.928,126.400 296.028,126.400 295.200 C 126.400 294.372,126.040 293.472,125.600 293.200 C 125.132 292.911,124.800 293.741,124.800 295.200 M174.564 294.263 C 174.854 295.765,176.905 296.086,177.366 294.702 C 177.531 294.208,176.910 293.606,175.986 293.365 C 174.721 293.034,174.370 293.256,174.564 294.263 M239.733 295.735 C 239.265 298.620,237.899 300.279,236.635 299.498 C 235.886 299.035,236.665 295.252,237.808 293.800 C 239.329 291.869,240.216 292.760,239.733 295.735 M83.546 296.409 C 83.256 297.954,82.699 299.415,82.309 299.656 C 81.130 300.385,81.514 303.217,82.862 303.735 C 83.556 304.001,84.726 303.610,85.462 302.866 C 86.713 301.602,86.711 301.547,85.438 302.028 C 82.687 303.066,82.396 298.137,85.052 295.482 C 85.848 294.686,85.723 293.600,84.836 293.600 C 84.416 293.600,83.835 294.864,83.546 296.409 M150.022 294.559 C 150.421 295.607,149.928 296.077,147.870 296.610 C 144.942 297.368,144.260 299.427,146.800 299.836 C 150.199 300.384,150.650 300.735,149.592 302.009 C 148.267 303.606,144.434 303.520,142.771 301.857 C 141.513 300.599,141.446 300.611,141.721 302.057 C 142.146 304.288,150.005 304.805,150.566 302.638 C 151.161 300.348,150.415 299.200,148.333 299.200 C 147.270 299.200,146.400 298.840,146.400 298.400 C 146.400 297.960,146.871 297.600,147.447 297.600 C 149.639 297.600,151.686 295.394,150.553 294.254 C 149.687 293.383,149.595 293.436,150.022 294.559 M375.684 294.730 C 375.923 295.353,375.545 296.034,374.843 296.249 C 373.840 296.554,373.868 296.610,374.975 296.509 C 376.459 296.375,377.516 293.600,376.084 293.600 C 375.625 293.600,375.445 294.109,375.684 294.730 M23.611 297.851 C 21.683 302.466,22.746 305.364,25.698 303.539 C 26.379 303.118,26.168 302.749,24.999 302.317 C 23.262 301.675,23.276 299.219,25.030 296.981 C 25.469 296.420,25.601 295.735,25.325 295.458 C 25.048 295.181,24.276 296.258,23.611 297.851 M34.400 296.200 C 34.400 296.918,34.760 297.728,35.200 298.000 C 36.097 298.555,36.310 302.400,35.444 302.400 C 35.138 302.400,33.885 301.439,32.659 300.265 C 30.344 298.047,26.400 298.475,26.400 300.943 C 26.400 301.703,26.613 301.707,27.360 300.960 C 28.848 299.472,30.516 299.811,32.891 302.087 C 36.373 305.423,38.686 300.561,35.575 296.447 C 34.589 295.144,34.400 295.105,34.400 296.200 M316.163 297.636 C 315.142 299.271,310.400 299.900,310.400 298.400 C 310.400 297.960,309.996 297.600,309.502 297.600 C 308.882 297.600,308.912 297.971,309.600 298.800 C 311.015 300.505,314.694 300.286,316.404 298.395 C 317.203 297.512,317.695 296.629,317.498 296.431 C 317.301 296.234,316.700 296.776,316.163 297.636 M94.400 297.433 C 94.400 297.977,94.836 299.120,95.370 299.974 C 95.903 300.828,96.110 301.756,95.830 302.037 C 94.891 302.975,92.177 301.565,91.746 299.915 C 91.281 298.136,87.198 297.961,86.630 299.695 C 86.445 300.261,87.088 300.447,88.378 300.200 C 89.907 299.908,90.834 300.336,92.068 301.905 C 95.152 305.825,98.562 302.386,95.676 298.265 C 94.974 297.264,94.400 296.889,94.400 297.433 M320.063 298.476 C 319.850 302.785,311.435 304.403,307.664 300.861 C 305.602 298.923,304.674 299.188,306.639 301.153 C 309.221 303.735,312.894 304.955,315.203 303.999 C 318.117 302.792,321.087 299.602,320.549 298.257 C 320.247 297.503,320.108 297.566,320.063 298.476 M122.963 300.474 C 121.365 302.614,121.845 303.069,123.721 301.193 C 124.385 300.529,124.810 299.662,124.664 299.267 C 124.519 298.872,123.753 299.415,122.963 300.474 M348.499 300.690 C 346.770 302.601,340.240 303.592,338.553 302.201 C 337.556 301.379,337.410 301.414,337.733 302.400 C 338.532 304.841,345.673 304.312,348.825 301.578 C 349.833 300.705,350.477 299.810,350.257 299.590 C 350.037 299.370,349.246 299.865,348.499 300.690 M173.805 301.600 C 174.208 303.078,176.674 303.646,177.800 302.520 C 178.374 301.946,178.075 301.835,176.833 302.159 C 175.740 302.445,174.731 302.193,174.257 301.515 C 173.610 300.589,173.534 300.603,173.805 301.600 M243.761 303.699 C 243.047 305.073,242.681 306.414,242.946 306.680 C 243.212 306.945,242.822 307.395,242.080 307.680 C 240.232 308.389,239.554 307.501,240.799 306.001 C 241.664 304.959,241.619 304.843,240.513 305.267 C 237.187 306.544,239.632 309.197,243.471 308.477 C 246.031 307.997,249.771 303.104,248.529 301.862 C 248.238 301.571,248.000 301.768,248.000 302.300 C 248.000 303.623,244.942 306.809,244.294 306.161 C 244.007 305.874,244.217 305.102,244.762 304.446 C 245.306 303.790,245.595 302.792,245.405 302.227 C 245.204 301.634,244.510 302.256,243.761 303.699 " stroke="none" fill="#ccc5c6" fill-rule="evenodd"></path><path id="path4" d="M200.800 86.497 L 200.800 97.767 210.314 107.483 C 238.946 136.725,237.739 134.990,233.000 140.113 C 227.103 146.489,228.329 147.001,212.827 131.679 L 200.800 119.792 200.800 132.311 L 200.800 144.830 205.400 149.480 C 207.930 152.037,210.985 155.196,212.190 156.498 L 214.380 158.866 207.606 166.033 L 200.832 173.200 200.816 184.200 C 200.794 199.398,196.492 202.061,238.617 160.800 C 263.494 136.433,263.806 134.812,246.833 118.105 C 241.975 113.323,230.938 102.454,222.306 93.951 C 213.674 85.449,205.304 77.757,203.706 76.860 L 200.800 75.227 200.800 86.497 M22.400 251.200 L 22.400 273.600 27.200 273.600 L 32.000 273.600 32.000 264.825 L 32.000 256.049 41.800 255.825 L 51.600 255.600 51.600 252.000 L 51.600 248.400 42.000 248.000 L 32.400 247.600 32.165 241.800 L 31.930 236.000 41.918 236.000 C 52.854 236.000,52.952 235.959,52.265 231.725 L 51.791 228.800 37.095 228.800 L 22.400 228.800 22.400 251.200 M60.500 231.300 C 59.230 237.649,59.955 260.775,61.520 263.842 C 68.561 277.645,90.664 277.091,96.652 262.962 C 97.276 261.489,97.600 255.276,97.600 244.762 L 97.600 228.800 93.298 228.800 L 88.995 228.800 88.635 243.400 C 88.221 260.169,87.521 262.452,82.133 264.601 C 71.799 268.723,68.442 260.723,68.030 231.000 C 67.981 227.391,61.228 227.660,60.500 231.300 M106.137 231.800 C 105.880 233.450,105.418 243.530,105.112 254.200 L 104.555 273.600 119.477 273.600 L 134.400 273.600 134.400 270.465 C 134.400 264.805,134.391 264.800,124.874 264.800 C 114.024 264.800,114.400 265.217,114.400 253.163 C 114.400 247.818,114.166 240.150,113.880 236.123 L 113.360 228.800 109.982 228.800 C 106.696 228.800,106.592 228.881,106.137 231.800 M140.525 236.600 C 140.241 240.890,140.006 250.978,140.004 259.018 L 140.000 273.637 154.200 273.418 L 168.400 273.200 168.648 270.637 C 169.148 265.469,168.161 264.880,158.586 264.627 L 150.000 264.400 149.785 246.600 L 149.569 228.800 145.305 228.800 L 141.041 228.800 140.525 236.600 M265.800 262.130 C 265.250 262.352,264.798 262.953,264.795 263.467 C 264.792 263.980,264.286 265.366,263.670 266.546 C 263.055 267.726,262.308 269.796,262.012 271.146 L 261.473 273.600 266.736 273.600 C 269.631 273.600,272.000 273.464,272.000 273.298 C 272.000 272.486,267.263 261.546,266.962 261.663 C 266.873 261.698,266.350 261.908,265.800 262.130 M250.400 287.867 C 250.400 288.726,249.860 289.636,249.200 289.889 C 247.828 290.416,247.455 297.600,248.800 297.600 C 249.240 297.600,249.602 296.970,249.605 296.200 C 249.608 295.430,250.148 293.769,250.805 292.509 C 252.186 289.860,252.349 287.510,251.200 286.800 C 250.760 286.528,250.400 287.008,250.400 287.867 M28.505 288.561 C 28.227 288.839,28.000 289.659,28.000 290.384 C 28.000 291.108,27.078 293.611,25.951 295.947 C 24.735 298.468,24.133 300.723,24.468 301.497 C 24.928 302.556,25.187 302.397,25.853 300.653 C 27.296 296.870,32.801 297.023,34.025 300.880 C 34.401 302.062,34.810 302.310,35.406 301.714 C 35.994 301.126,35.998 300.552,35.418 299.834 C 34.960 299.265,34.335 297.630,34.029 296.200 C 33.723 294.770,33.141 293.600,32.736 293.600 C 32.331 293.600,32.000 292.713,32.000 291.628 C 32.000 289.706,29.529 287.538,28.505 288.561 M55.923 289.025 C 49.481 293.941,52.665 302.631,60.600 301.792 C 65.096 301.316,64.973 300.226,60.435 300.323 C 54.570 300.449,52.093 294.731,56.508 291.258 C 59.024 289.279,60.120 289.207,63.240 290.821 C 65.937 292.215,66.188 291.905,64.222 289.609 C 62.654 287.778,57.988 287.450,55.923 289.025 M87.741 289.898 C 87.003 291.023,86.389 292.586,86.375 293.372 C 86.361 294.157,85.821 295.499,85.175 296.353 C 83.870 298.078,83.582 301.600,84.746 301.600 C 85.156 301.600,85.715 300.898,85.987 300.041 C 86.758 297.612,92.000 296.929,92.000 299.257 C 92.000 299.635,92.695 300.315,93.544 300.770 C 95.232 301.674,94.635 297.515,92.814 295.694 C 92.366 295.246,91.992 294.142,91.982 293.240 C 91.972 292.338,91.316 290.757,90.523 289.726 L 89.081 287.852 87.741 289.898 M113.333 288.533 C 113.040 288.827,112.800 291.887,112.800 295.333 L 112.800 301.600 117.076 301.600 C 122.440 301.600,124.000 300.133,124.000 295.087 C 124.000 290.014,116.476 285.391,113.333 288.533 M142.933 288.533 C 142.640 288.827,142.400 291.887,142.400 295.333 L 142.400 301.600 146.200 301.517 L 150.000 301.435 146.956 300.627 C 142.906 299.554,142.936 296.541,147.000 296.149 C 149.760 295.883,150.663 294.400,148.065 294.400 C 143.292 294.400,142.268 290.797,146.800 289.947 C 148.340 289.658,149.600 289.102,149.600 288.711 C 149.600 287.890,143.733 287.734,142.933 288.533 M169.333 288.533 C 169.040 288.827,168.851 291.977,168.913 295.533 C 169.016 301.445,169.069 301.644,169.530 297.849 C 170.155 292.710,170.868 291.899,172.132 294.889 L 173.109 297.200 173.402 295.053 C 173.881 291.556,170.972 286.895,169.333 288.533 M179.679 290.482 C 178.278 293.291,177.997 296.000,179.107 296.000 C 179.495 296.000,180.002 295.280,180.232 294.400 C 181.050 291.272,182.325 292.869,182.627 297.400 C 182.814 300.218,182.907 299.391,182.867 295.264 C 182.793 287.823,181.771 286.289,179.679 290.482 M208.547 288.520 C 208.246 288.821,208.000 289.597,208.000 290.245 C 208.000 291.387,205.819 293.523,204.600 293.575 C 204.270 293.589,204.000 292.924,204.000 292.098 C 204.000 290.668,201.907 288.223,201.250 288.886 C 201.079 289.059,201.637 290.633,202.489 292.384 C 203.342 294.135,204.256 296.918,204.520 298.569 C 205.005 301.603,206.400 302.028,206.400 299.142 C 206.400 297.562,206.638 296.960,209.174 292.128 C 210.453 289.690,209.998 287.069,208.547 288.520 M276.441 290.676 C 273.325 294.760,274.498 301.071,278.477 301.631 C 281.506 302.058,286.400 301.501,286.400 300.730 C 286.400 300.162,285.321 300.042,283.299 300.383 C 277.251 301.405,273.854 295.513,278.180 291.503 C 280.333 289.508,280.860 289.462,285.600 290.861 C 287.593 291.449,287.595 291.445,286.076 289.726 C 283.575 286.894,278.979 287.347,276.441 290.676 M308.538 289.635 C 304.702 292.652,305.445 301.327,309.572 301.716 C 316.906 302.406,320.000 300.583,320.000 295.572 C 320.000 289.282,313.359 285.842,308.538 289.635 M338.569 294.975 L 338.800 301.950 342.800 301.715 C 353.094 301.111,352.220 288.000,341.886 288.000 L 338.338 288.000 338.569 294.975 M368.533 288.533 C 367.797 289.270,367.858 301.426,368.600 301.841 C 368.930 302.026,370.640 301.979,372.400 301.737 C 375.513 301.310,375.535 301.285,373.200 300.845 C 369.559 300.158,369.170 296.000,372.747 296.000 C 375.795 296.000,375.998 294.598,373.000 294.253 C 369.494 293.850,369.840 290.092,373.415 289.748 C 374.854 289.610,375.822 289.160,375.568 288.748 C 375.042 287.897,369.344 287.723,368.533 288.533 M120.335 291.292 C 125.007 294.967,120.860 302.542,115.509 300.104 C 112.738 298.842,112.656 291.528,115.400 290.425 C 117.929 289.408,117.944 289.411,120.335 291.292 M316.292 291.258 C 320.284 294.398,318.309 300.320,313.270 300.320 C 309.621 300.320,308.000 298.805,308.000 295.396 C 308.000 290.312,312.337 288.147,316.292 291.258 M346.945 291.631 C 350.252 294.937,346.049 301.812,341.587 300.396 C 339.688 299.793,339.179 290.878,341.000 290.113 C 342.463 289.499,345.619 290.304,346.945 291.631 M90.400 294.447 C 90.400 295.301,89.860 296.000,89.200 296.000 C 88.013 296.000,87.523 293.544,88.512 292.555 C 89.346 291.721,90.400 292.777,90.400 294.447 M31.102 293.523 C 32.533 294.429,31.549 296.000,29.553 296.000 C 28.533 296.000,28.000 295.450,28.000 294.400 C 28.000 292.713,29.261 292.356,31.102 293.523 M233.390 295.672 C 232.394 297.672,232.207 298.902,232.754 299.853 C 233.399 300.975,233.618 300.763,234.067 298.583 C 234.364 297.144,234.920 295.773,235.303 295.536 C 236.155 295.010,236.234 292.792,235.400 292.820 C 235.070 292.831,234.165 294.114,233.390 295.672 M242.400 294.222 C 242.400 295.004,241.823 296.467,241.118 297.474 C 239.345 300.005,240.552 300.842,242.437 298.388 C 244.061 296.274,244.536 292.800,243.200 292.800 C 242.760 292.800,242.400 293.440,242.400 294.222 M174.400 299.200 C 174.400 301.913,177.123 302.720,177.776 300.200 C 178.327 298.075,177.636 296.800,175.933 296.800 C 174.763 296.800,174.400 297.368,174.400 299.200 M246.400 300.847 C 246.400 302.275,246.733 303.088,247.200 302.800 C 247.640 302.528,248.000 301.427,248.000 300.353 C 248.000 299.279,247.640 298.400,247.200 298.400 C 246.760 298.400,246.400 299.501,246.400 300.847 " stroke="none" fill="#57585a" fill-rule="evenodd"></path></g></svg>